<svg xmlns="http://www.w3.org/2000/svg" xmlns:xlink="http://www.w3.org/1999/xlink" width="68" height="68" fill="none"><rect width="68" height="68" rx="14" fill="#f2f5f8"/><g fill="#ce433d"><path d="M33.38 22.827a.62.62 0 0 1-.621-.62v-2.483a.62.62 0 1 1 1.241 0v2.483a.62.62 0 0 1-.621.62zm-8.34 3.455a.62.62 0 0 1-.439-.182l-2.195-2.195a.621.621 0 1 1 .878-.878l2.195 2.195a.62.62 0 0 1-.439 1.06zm-3.454 8.338h-2.483a.621.621 0 1 1 0-1.242h2.483a.621.621 0 1 1 0 1.242zm1.26 10.534a.62.62 0 0 1-.439-1.06L24.6 41.9a.621.621 0 0 1 .878.878l-2.195 2.195a.62.62 0 0 1-.439.182z"/><path d="M33.38 48.897a.62.62 0 0 1-.621-.621v-2.483a.62.62 0 1 1 1.241 0v2.483a.62.62 0 0 1-.621.621zm10.533-3.743a.62.62 0 0 1-.439-.182l-2.195-2.195a.621.621 0 1 1 .878-.878l2.195 2.195a.62.62 0 0 1-.439 1.06zm4.364-10.534h-3.103a.621.621 0 1 1 0-1.242h3.103a.621.621 0 1 1 0 1.242zm-6.56-8.338a.62.62 0 0 1-.439-1.06l2.195-2.195a.62.62 0 1 1 .878.878L42.157 26.1a.62.62 0 0 1-.439.182z"/></g><path d="M45.172 34c0 6.513-5.28 11.793-11.793 11.793S21.586 40.513 21.586 34s5.28-11.793 11.793-11.793S45.172 27.487 45.172 34z" fill="#ec615b"/><g fill="#ce433d"><path d="M33.38 43.93a.62.62 0 1 1 0-1.241 8.7 8.7 0 0 0 8.69-8.69.62.62 0 1 1 1.241 0c-.007 5.482-4.45 9.924-9.93 9.93zm4.964-14.275c0 1.37-1.1 2.483-2.483 2.483s-2.483-1.112-2.483-2.483 1.1-2.483 2.483-2.483a2.48 2.48 0 0 1 2.483 2.483z"/><path d="M29.656 31.518a1.862 1.862 0 1 1-3.724 0 1.862 1.862 0 1 1 3.724 0zm5.586 5.585a1.86 1.86 0 0 1-1.862 1.862 1.862 1.862 0 1 1 0-3.724c1.028 0 1.862.834 1.862 1.862zm-8.7.62a.62.62 0 0 1-.236-.05.72.72 0 0 1-.205-.13.64.64 0 0 1-.13-.205.6.6 0 0 1-.05-.236c.003-.164.067-.322.18-.44a.72.72 0 0 1 .205-.13c.232-.094.496-.042.676.13a.65.65 0 0 1 .18.441.63.63 0 0 1-.05.236.64.64 0 0 1-.131.205.66.66 0 0 1-.44.18zm3.104 3.724a.63.63 0 0 1-.236-.05.73.73 0 0 1-.205-.13.64.64 0 0 1-.13-.205.62.62 0 0 1-.05-.236.65.65 0 0 1 .18-.44.72.72 0 0 1 .205-.13c.23-.094.496-.043.676.13a.65.65 0 0 1 .18.441.62.62 0 0 1-.05.236.65.65 0 0 1-.571.385zm5.586-23.586c0 1.028-.834 1.862-1.862 1.862a1.862 1.862 0 1 1 0-3.724c1.028 0 1.862.834 1.862 1.862z"/><use xlink:href="#B"/><path d="M19.103 34A1.55 1.55 0 1 1 16 34a1.55 1.55 0 1 1 3.103 0z"/><use xlink:href="#C"/><path d="M35.242 50.138c0 1.03-.834 1.862-1.862 1.862a1.86 1.86 0 1 1 0-3.724c1.028 0 1.862.834 1.862 1.862z"/><use xlink:href="#C" x="24.577"/><path d="M52 34c0 1.028-.834 1.862-1.862 1.862s-1.862-.834-1.862-1.862.834-1.862 1.862-1.862S52 32.972 52 34z"/><use xlink:href="#B" x="24.577"/></g><defs ><path id="B" d="M23.573 21.71c0 1.37-1.112 2.483-2.483 2.483s-2.483-1.11-2.483-2.483 1.112-2.483 2.483-2.483 2.483 1.11 2.483 2.483z"/><path id="C" d="M23.573 46.29c0 1.37-1.112 2.483-2.483 2.483s-2.483-1.112-2.483-2.483 1.112-2.483 2.483-2.483 2.483 1.112 2.483 2.483z"/></defs></svg>