<svg xmlns="http://www.w3.org/2000/svg" xmlns:xlink="http://www.w3.org/1999/xlink" width="68" height="68" fill="none"><rect width="68" height="68" rx="14" fill="#f2f5f8"/><path d="M46.88 48.996H21.11v-20.1A12.89 12.89 0 0 1 33.995 16a12.89 12.89 0 0 1 12.886 12.886v20.1z" fill="#ec615b"/><g fill="#ce433d"><path d="M46.882 28.886v20.1h-3.32v-20.1c0-3.56-1.442-6.78-3.774-9.112a12.85 12.85 0 0 0-7.451-3.668A13.06 13.06 0 0 1 33.997 16c3.56 0 6.78 1.442 9.11 3.774s3.774 5.553 3.774 9.112z"/><path d="M48.938 52H19.054c-.2 0-.363-.162-.363-.363V49.34c0-.2.162-.363.363-.363h29.884c.2 0 .363.162.363.363v2.297c0 .2-.162.363-.363.363z"/><path d="M48.938 52H43.56v-3.004h5.378c.2 0 .363.163.363.363v2.278c0 .2-.163.363-.363.363z"/></g><g fill="#fff"><path d="M37.172 24.165h-1.868v-2.793c0-.2-.163-.363-.363-.363h-1.887c-.2 0-.363.163-.363.363v2.793h-1.868c-.2 0-.363.163-.363.363v1.887c0 .2.163.363.363.363H32.7v4.943c0 .2.163.363.363.363h1.887c.2 0 .363-.163.363-.363v-4.943h1.868c.2 0 .363-.162.363-.363v-1.887c0-.2-.163-.363-.363-.363z"/><use xlink:href="#B"/><use xlink:href="#B" y="3.158"/><use xlink:href="#B" y="6.316"/></g><defs ><path id="B" d="M42 36.97H25.994c-.3 0-.544-.244-.544-.544s.244-.544.544-.544H42c.3 0 .544.244.544.544s-.244.544-.544.544z"/></defs></svg>