<svg xmlns="http://www.w3.org/2000/svg" width="68" height="68" fill="none"><rect width="68" height="68" rx="14" fill="#f2f5f8"/><g clip-path="url(#A)" fill="#ec615b"><path d="M22.324 44.617a1.06 1.06 0 0 0 1.055 1.055h21.234a1.06 1.06 0 0 0 1.055-1.055c0-.582-.473-1.055-1.055-1.055H23.38a1.06 1.06 0 0 0-1.055 1.055zm22.29-7.383H41.52a7.62 7.62 0 0 1-2.28 4.22h5.373a3.17 3.17 0 0 1 3.164 3.164 3.17 3.17 0 0 1-3.164 3.164H23.38a3.17 3.17 0 0 1-3.164-3.164 3.17 3.17 0 0 1 3.164-3.164h5.373c-1.168-1.104-1.988-2.57-2.28-4.22H23.38c-4.07 0-7.383 3.312-7.383 7.383S19.308 52 23.38 52h21.234c4.07 0 7.383-3.312 7.383-7.383s-3.312-7.383-7.383-7.383zm-10.616 4.2a5.53 5.53 0 0 0 5.53-5.53c0-1.07-.305-2.068-.83-2.915l-4.7-7.6-4.7 7.6a5.5 5.5 0 0 0-.831 2.915 5.53 5.53 0 0 0 5.53 5.53zm-.557-19.156c.18.032.367.05.557.05s.376-.018.557-.05c1.482-.263 2.607-1.557 2.607-3.114 0-1.747-1.417-3.164-3.164-3.164s-3.164 1.417-3.164 3.164c0 1.557 1.125 2.85 2.607 3.114z"/></g><defs><clipPath id="A"><path fill="#fff" d="M15.996 16h36v36h-36z"/></clipPath></defs></svg>