<svg xmlns="http://www.w3.org/2000/svg" width="68" height="68" fill="none"><rect width="68" height="68" rx="14" fill="#f2f5f8"/><path d="M46.896 20.35c-.325-.19-.726-.19-1.05 0-1.257.697-2.672 1.06-4.1 1.05-2.102.047-4.134-.753-5.64-2.22a9.05 9.05 0 0 0-6.522-2.58c-1.96-.017-3.874.58-5.478 1.704V17.8a1.8 1.8 0 1 0-3.6 0v32.4a1.8 1.8 0 1 0 3.6 0V34.6a1.05 1.05 0 0 0 .546-.216c1.428-1.05 3.16-1.607 4.932-1.584a7.85 7.85 0 0 1 5.652 2.22 9.04 9.04 0 0 0 6.51 2.58 9.38 9.38 0 0 0 5.244-1.53 1.2 1.2 0 0 0 .516-1.02V21.4a1.2 1.2 0 0 0-.6-1.05z" fill="#ec615b"/></svg>