<svg xmlns="http://www.w3.org/2000/svg" width="97" height="90" fill="none"><path d="M15.257 16.265a5.75 5.75 0 0 1 .263-.892c.15-.454.322-.9.518-1.335.342-.724.797-1.388 1.347-1.97 1.213-1.218 2.75-2.062 4.43-2.43 1.07-.293 2.188-.356 3.282-.185 1.127.28 2.177.807 3.072 1.546s1.613 1.67 2.1 2.724a25.69 25.69 0 0 1 1.459 13.725c-.264 1.152-.8 2.227-1.536 3.143s-1.693 1.648-2.767 2.14a8.51 8.51 0 0 1-8.872-2.886c-1.463-1.597-2.538-3.51-3.14-5.592-.374-2.017-.518-4.07-.428-6.12a11.3 11.3 0 0 1 .226-1.648 1.86 1.86 0 0 0 .046-.219zm5.748 5.942c.23.863.594 1.684 1.082 2.43a2.86 2.86 0 0 0 1.174 1.15c.48.153.997.145 1.472-.024a2.3 2.3 0 0 0 1.157-.91c.518-.867.816-1.848.868-2.857a13.64 13.64 0 0 0 .078-3.506c-.15-1.176-.688-2.268-1.532-3.1a2.43 2.43 0 0 0-2.217-.683 3.09 3.09 0 0 0-1.855 2.407c-.438 1.662-.515 3.398-.226 5.09z" fill="#fff"/><path d="M22.085 24.63a8.39 8.39 0 0 1-1.082-2.431 12.03 12.03 0 0 1 .226-5.106 3.09 3.09 0 0 1 1.855-2.407 2.43 2.43 0 0 1 2.217.683c.844.832 1.383 1.924 1.532 3.1.125 1.167.1 2.346-.078 3.506-.052 1.01-.35 2-.868 2.857-.276.422-.682.74-1.157.9a2.3 2.3 0 0 1-1.472.024 2.86 2.86 0 0 1-1.174-1.135z" fill="#e8e4c8"/><path d="M1.787 46.467a38.95 38.95 0 0 1 .459-24.686 38.95 38.95 0 0 1 15.209-19.45l.226-.153a18.79 18.79 0 0 0-4.202 4.228A34.97 34.97 0 0 0 7.246 29.81a40.65 40.65 0 0 0 1.087 6.694c-.002.048.008.096.03.14.505 2.664 1.227 5.283 2.16 7.83a56.57 56.57 0 0 0 42.571 36.305 42.12 42.12 0 0 0 14.62.066 36.14 36.14 0 0 0 22.126-13.735l-.124.258c-3.54 7.643-9.52 13.89-17 17.762s-16.035 5.143-24.32 3.617a58.42 58.42 0 0 1-15.376-4.6c-2.01-1.23-3.95-2.566-5.818-4.002-2.458-1.86-4.924-3.744-7.248-5.777A63.46 63.46 0 0 1 1.787 46.467z" fill="#fad5b3"/><path d="M8.364 36.642c-.02-.043-.03-.09-.03-.14a46.06 46.06 0 0 1-.839-8.945 43.14 43.14 0 0 0 7.168 18.69c4.693 7.948 11.403 14.514 19.45 19.033 6.942 3.64 14.912 4.824 22.612 3.358 3.817-.77 7.445-2.288 10.672-4.467s5.992-4.975 8.134-8.227a25.6 25.6 0 0 0 3.843-10.894c.434-3.877-.023-7.802-1.337-11.474a22.77 22.77 0 0 0-14.736-13.65c1.91-.268 3.837-.486 5.75-.613 6.414-.44 13.285.343 18.45 4.194a24.18 24.18 0 0 1 8.408 13.781 36.16 36.16 0 0 1-4.7 27.846c-.445.66-.892 1.325-1.38 1.945a36.14 36.14 0 0 1-22.125 13.735 42.12 42.12 0 0 1-14.62-.066 56.57 56.57 0 0 1-42.571-36.298 49.66 49.66 0 0 1-2.152-7.809z" fill="#ec615b"/><path d="M17.383 12.068a7.57 7.57 0 0 0-1.347 1.969 6.78 6.78 0 0 0-.518 1.335c-.103.293-.2.59-.263.892-.01.072-.025.144-.044.214a14.83 14.83 0 0 0 .202 7.78c.6 2.08 1.675 3.995 3.14 5.592a8.51 8.51 0 0 0 8.872 2.886c1.074-.492 2.02-1.224 2.768-2.14s1.272-1.992 1.536-3.143a25.69 25.69 0 0 0-1.459-13.725c-.487-1.054-1.205-1.984-2.1-2.724s-1.945-1.267-3.072-1.546c-1.095-.17-2.214-.108-3.282.185-1.68.367-3.218 1.208-4.432 2.424zm-10.14 17.75a34.97 34.97 0 0 1 6.234-23.404 18.79 18.79 0 0 1 4.202-4.228l.92-.593c.284-.182.58-.345.887-.486C20.695.5 22.025.182 23.375.176s2.682.3 3.894.895c5.196 2.87 4.683 10.66 8.335 15.376 3.188 4.133 8.996 5.167 14.253 4.992 4.513-.148 8.965-.922 13.438-1.503a22.77 22.77 0 0 1 14.737 13.65 25.6 25.6 0 0 1-2.507 22.369c-2.142 3.252-4.906 6.048-8.134 8.227s-6.855 3.697-10.672 4.467c-7.7 1.466-15.67.283-22.612-3.358-8.048-4.52-14.758-11.085-19.45-19.033a43.14 43.14 0 0 1-7.168-18.69 46.06 46.06 0 0 0 .839 8.945 40.65 40.65 0 0 1-1.082-6.703v.007z" fill="#e1554f"/><path d="M64.332 13.617a10.01 10.01 0 0 1 .37 5.805 10.02 10.02 0 0 1-13.905 6.824 10.01 10.01 0 0 1-4.365-3.845c-1.043-1.685-1.562-3.64-1.493-5.622a10.01 10.01 0 0 1 1.883-5.504 10.02 10.02 0 0 1 4.623-3.53c2.487-.93 5.242-.833 7.658.27s4.297 3.116 5.228 5.603zM47.517 35.952a4.15 4.15 0 0 1-3.217 5.543 4.15 4.15 0 0 1-2.386-.317c-.746-.34-1.375-.892-1.808-1.6a4.15 4.15 0 0 1 3.661-6.334 4.15 4.15 0 0 1 2.897 1.317 4.16 4.16 0 0 1 .853 1.38zm26.103 7.656a8.18 8.18 0 0 1-2.085 8.853 8.2 8.2 0 0 1-8.977 1.463 8.18 8.18 0 0 1-4.787-7.733 8.18 8.18 0 0 1 1.537-4.497 8.2 8.2 0 0 1 3.777-2.886 8.19 8.19 0 0 1 10.536 4.798zm1.63-12.8c.18.48.213 1 .097 1.5s-.38.95-.753 1.3a2.58 2.58 0 0 1-2.84.463 2.59 2.59 0 0 1-1.514-2.445c.018-.512.187-1.006.487-1.422s.715-.732 1.195-.9c.642-.24 1.353-.214 1.976.07a2.59 2.59 0 0 1 1.35 1.445zm-30.67 22.63a2.92 2.92 0 0 1-2.253 3.913 2.92 2.92 0 0 1-1.682-.223c-.526-.24-.97-.63-1.273-1.12a2.92 2.92 0 0 1-.434-1.64c.02-.578.213-1.136.55-1.604s.8-.826 1.35-1.026a2.92 2.92 0 0 1 3.742 1.702zM41.254 7.53c.142.38.168.792.075 1.186s-.3.752-.597 1.028a2.05 2.05 0 0 1-1.067.523c-.4.065-.8.01-1.178-.158a2.04 2.04 0 0 1-.892-.785 2.05 2.05 0 0 1-.305-1.148 2.06 2.06 0 0 1 .384-1.125c.236-.33.565-.58.944-.722.252-.095.52-.14.8-.13a2.03 2.03 0 0 1 .778.183 2.09 2.09 0 0 1 .65.467c.185.197.326.428.42.68zm26.362-.738a2.73 2.73 0 0 1 .1 1.585c-.124.527-.4 1.004-.797 1.373a2.75 2.75 0 0 1-1.426.7 2.73 2.73 0 0 1-1.574-.21c-.492-.224-.907-.6-1.2-1.05s-.426-.994-.408-1.535a2.73 2.73 0 0 1 1.776-2.467c.337-.126.695-.184 1.054-.172s.712.096 1.04.245.62.36.866.624.436.57.562.908zM40.253 27.206a1.36 1.36 0 0 1-1.835 1.715 1.36 1.36 0 0 1 .087-2.51 1.36 1.36 0 0 1 1.748.795zm14.5 12.998a1.62 1.62 0 0 1-.41 1.749 1.61 1.61 0 0 1-.843.413 1.62 1.62 0 0 1-.93-.124c-.3-.132-.536-.35-.704-.62s-.252-.587-.24-.907.117-.63.303-.888a1.62 1.62 0 0 1 .746-.57c.2-.075.4-.1.623-.102a1.46 1.46 0 0 1 .614.144c.194.088.367.214.512.37s.257.338.33.537z" fill="#fad5b3"/></svg>