<svg xmlns="http://www.w3.org/2000/svg" width="120" height="97" fill="none"><path d="M118.877 47.87c-5.696 5.96-12.5 10.752-20.032 14.105a31.5 31.5 0 0 1-25.168.125c-7.142-3.425-12.196-10.045-16.22-16.877-7.053-11.99-12.387-25.942-23.998-33.617-8.21-5.43-19.677-5.118-29.367-1.338-.983-.146 9.984-5.7 14.954-6.286 4.663-.494 9.378-.07 13.877 1.25C50.26 10.224 61.8 24.68 74.55 36.417c6.223 5.743 13.115 11.216 21.282 13.825a25.76 25.76 0 0 0 23.12-2.903c.1-.054.047.134-.077.53z" fill="#f9c391"/><path d="M118.875 47.87c-1.338 3.905-12.302 27.34-22.14 35.632-9.9 8.603-22.667 13.18-35.778 12.824C48.882 95.856 37.5 90.52 31.13 79.97c-6.933-11.486-7.415-25.154-9.314-38.084-.77-6.434-2.465-12.724-5.033-18.673a35.52 35.52 0 0 0-4.763-7.73c-1.942-2.38-4.575-5.172-7.897-5.22-.015-.003-.03-.01-.04-.02 9.7-3.78 21.158-4.093 29.367 1.338 11.61 7.685 16.926 21.64 23.998 33.617 4.032 6.832 9.086 13.452 16.22 16.877a31.5 31.5 0 0 0 25.168-.125 63.33 63.33 0 0 0 20.039-14.079z" fill="#fad5b3"/><path d="M94.734 33.07A25.3 25.3 0 0 1 75.571 57.6c-5.47 1.368-11.243.868-16.397-1.42A25.3 25.3 0 0 1 47.12 44.972c-2.656-4.975-3.574-10.695-2.607-16.25A25.3 25.3 0 0 1 67.586 7.828a25.3 25.3 0 0 1 15.914 4.201c3.458 2.313 6.293 5.444 8.253 9.114a25.3 25.3 0 0 1 2.982 11.928z" fill="#2a407f"/><g fill="#152b6a"><path d="M63.654 10.936a5.44 5.44 0 0 1-1.175 3.395 4.62 4.62 0 0 1-.642.705c-.966.885-2.217 1.396-3.526 1.44a1.32 1.32 0 0 1-.193 0 5.54 5.54 0 0 1-3.926-9.456 5.54 5.54 0 0 1 9.463 3.91v.005zM54.078 30a6.23 6.23 0 0 1-.893 3.225c-.16.276-.345.536-.555.776a6.26 6.26 0 0 1-2.17 1.708c-.84.4-1.763.607-2.695.605-1.184.003-2.345-.327-3.35-.953a6.32 6.32 0 0 1-2.336-2.584 6.22 6.22 0 0 1-.6-3.43 6.4 6.4 0 0 1 1.3-3.23c.727-.933 1.704-1.644 2.817-2.05a6.22 6.22 0 0 1 3.475-.244 6.4 6.4 0 0 1 3.076 1.636 6.31 6.31 0 0 1 1.74 3.018 5.04 5.04 0 0 1 .165.94c.038.2.038.393.038.583zm-5.682-12.627c0 .106 0 .22-.02.327a3.19 3.19 0 0 1-.235.94c-.288.737-.82 1.354-1.507 1.747a3.47 3.47 0 0 1-4.714-4.76 3.47 3.47 0 0 1 6.47 1.737l.005.01zm9.544 32.7a5.53 5.53 0 0 1-9.443 3.916 5.53 5.53 0 0 1 3.916-9.443c.7-.002 1.413.135 2.07.402a5.35 5.35 0 0 1 .865.442 5.55 5.55 0 0 1 2.149 2.513 5.17 5.17 0 0 1 .3.94 5.38 5.38 0 0 1 .143 1.229zm22.063 3.816a6.87 6.87 0 0 1-10.374 5.914 6.87 6.87 0 0 1 .204-11.94 6.09 6.09 0 0 1 .872-.393 6.57 6.57 0 0 1 2.428-.45 6.86 6.86 0 0 1 2.092.327 5.56 5.56 0 0 1 .882.355 6.86 6.86 0 0 1 3.895 6.187zM72.44 38.145a3.84 3.84 0 0 1-6.557 2.716 3.84 3.84 0 0 1 2.716-6.557c1.02.001 1.995.406 2.716 1.126a3.84 3.84 0 0 1 1.126 2.715zM93.363 28.8a5.87 5.87 0 0 1-3.26-.42c-1.025-.448-1.9-1.177-2.525-2.104a4.98 4.98 0 0 1-.47-.835c-.52-1.124-.67-2.385-.423-3.6a5.02 5.02 0 0 1 .259-.921 5.87 5.87 0 0 1 4.554-3.728 5.88 5.88 0 0 1 3.03.306 5.86 5.86 0 0 1 2.47 1.782 5.88 5.88 0 0 1 .935 5.81 5.89 5.89 0 0 1-1.787 2.467c-.802.65-1.762 1.08-2.782 1.24zM81.795 5.973c.001 1.048-.33 2.07-.946 2.918a4.97 4.97 0 0 1-2.48 1.805 5.02 5.02 0 0 1-.94.2c-.197.03-.396.042-.595.04a4.93 4.93 0 0 1-2.466-.654 4.38 4.38 0 0 1-.776-.557c-.544-.464-.98-1.04-1.28-1.7a4.94 4.94 0 0 1-.45-2.07 4.96 4.96 0 0 1 1.454-3.51A4.97 4.97 0 0 1 76.83 1c1.316 0 2.58.523 3.5 1.454a4.97 4.97 0 0 1 1.454 3.51v.01z"/><path d="M78.545 25.84a3.72 3.72 0 0 1-.626 2.065c-.408.61-1 1.087-1.668 1.37s-1.426.355-2.147.212S72.72 29 72.2 28.47a3.72 3.72 0 0 1-.808-4.049 3.72 3.72 0 0 1 3.432-2.298c.488 0 .972.096 1.423.282a3.7 3.7 0 0 1 2.012 2.012c.186.45.283.935.283 1.423zm21.12 12.756a5.94 5.94 0 0 1-4.762 5.826c-1.343.273-2.742.07-3.955-.57s-2.167-1.68-2.7-2.944a5.47 5.47 0 0 1-.287-.91 5.67 5.67 0 0 1-.174-1.41c-.003-1.094.3-2.167.874-3.1.163-.276.353-.536.567-.776a5.94 5.94 0 0 1 10.438 3.874v.007zM87.256 51.523a3.21 3.21 0 0 0 3.209-3.209 3.21 3.21 0 0 0-3.209-3.209 3.21 3.21 0 0 0-3.209 3.209 3.21 3.21 0 0 0 3.209 3.209zm-23.196-22.8a2.23 2.23 0 0 1-3.808 1.577 2.23 2.23 0 0 1 1.577-3.808 2.23 2.23 0 0 1 2.231 2.231zm.742-12.356a.51.51 0 0 1 .162.33.5.5 0 0 1-.103.352c-.02.02-.04.028-.06.047a5.99 5.99 0 0 1-5.038 2.706c-.068.002-.136-.01-.2-.037s-.12-.066-.166-.115a.44.44 0 0 1-.374-.289l-.72-2.887c1.3-.045 2.56-.556 3.526-1.44a4.66 4.66 0 0 0 .642-.705 31.41 31.41 0 0 1 2.327 2.04zm-13.007 3.3a5.62 5.62 0 0 1-.616 1.956c-.3.575-.798 1.036-1.4 1.314a.4.4 0 0 1-.414-.047h-.02c-.047-.012-.1-.035-.125-.068l-2.586-2.426a3.46 3.46 0 0 0 1.507-1.747 3.19 3.19 0 0 0 .235-.94l3.136 1.373a.45.45 0 0 1 .268.393.5.5 0 0 1 .002.193zm27.173-6.975a.49.49 0 0 1-.015.363.48.48 0 0 1-.262.25.47.47 0 0 1-.277 0c-1.98.275-3.997-.088-5.757-1.037-.062-.035-.116-.083-.158-.14s-.07-.124-.084-.195a.49.49 0 0 1 .005-.212c.017-.07.05-.134.094-.2a.35.35 0 0 1 .028-.096l1.056-1.718c.237.213.498.4.776.557.75.43 1.6.656 2.466.653.2.002.398-.01.595-.04a4.93 4.93 0 0 0 .94-.2l.595 2.005zm-2.293 33.37a.66.66 0 0 1-.038.235c-.205.46-.382.93-.53 1.4a5.56 5.56 0 0 0-.882-.355 6.86 6.86 0 0 0-2.092-.327 6.63 6.63 0 0 0-2.428.45 6.04 6.04 0 0 0-.872.393l-.94-1.342a.44.44 0 0 1-.038-.47c-.001-.1.027-.195.08-.28a.51.51 0 0 1 .217-.192c1.128-.564 2.37-.867 3.63-.9a8.44 8.44 0 0 1 3.658.764.45.45 0 0 1 .245.25.44.44 0 0 1 .03.176.45.45 0 0 1-.041.174z"/><path d="M60.342 47.915c.038.057.06.123.068.2.01.127-.03.253-.114.35s-.2.158-.328.17l-2.177.2a5.18 5.18 0 0 0-.298-.94 5.55 5.55 0 0 0-2.15-2.513 5.35 5.35 0 0 0-.865-.442l1.45-2.034a.47.47 0 0 1 .2-.134c.067-.067.153-.1.246-.127a.44.44 0 0 1 .274.04 6.55 6.55 0 0 1 2.532 2.137 6.52 6.52 0 0 1 1.16 3.103zM54.695 35.44L52.643 34a4.9 4.9 0 0 0 .555-.776c.587-.973.895-2.1.893-3.225l-.028-.576a4.99 4.99 0 0 0-.165-.94l2.323-.336a.47.47 0 0 1 .433.209.59.59 0 0 1 .249.367c.428 2.254-.044 4.585-1.314 6.495a.4.4 0 0 1-.193.134l-.02.047c-.085.095-.203.153-.33.163a.49.49 0 0 1-.35-.11zm32.88-9.172l-3.166 1.784c-.048.054-.1.095-.177.12s-.14.032-.212.02-.14-.038-.197-.082a.44.44 0 0 1-.135-.165 11.9 11.9 0 0 1-.816-7.483c.015-.094.063-.18.135-.24a.41.41 0 0 1 .26-.095.5.5 0 0 1 .277-.019l3.406.794c-.115.298-.202.607-.26.922-.246 1.214-.098 2.475.423 3.6.126.296.28.578.46.844zm1.085 9.23a5.88 5.88 0 0 0-.874 3.099 5.67 5.67 0 0 0 .174 1.41 5.48 5.48 0 0 0 .287.91l-1.646.414a.53.53 0 0 1-.247.01c-.082-.016-.158-.053-.223-.105a.39.39 0 0 1-.372-.414 18.04 18.04 0 0 1 .308-3.799c.14-1.184.572-2.315 1.255-3.3.055-.064.127-.112.207-.14s.166-.035.25-.02.16.052.226.107a.48.48 0 0 1 .143.205l1.096.856c-.218.234-.412.488-.58.76z"/></g><g fill="#2a407f"><path d="M53.088 86.292a10.21 10.21 0 0 0 10.207-10.207 10.21 10.21 0 0 0-10.207-10.208 10.21 10.21 0 0 0-10.207 10.208 10.21 10.21 0 0 0 10.207 10.207z"/><path d="M52.45 69.966l-2.708-6.926a1.11 1.11 0 0 0-.957-.885c-.154-.02-.3-.005-.46.04a1.09 1.09 0 0 0-.403.224 1.11 1.11 0 0 0-.297 1.269l2.708 6.923a1.11 1.11 0 0 0 2.116-.647zm-5.37 3.166l-6.112-1.027a1.14 1.14 0 0 0-1.366.773c-.075.284-.036.585.1.84s.383.444.665.525l6.112 1.027a1.14 1.14 0 0 0 1.366-.773 1.12 1.12 0 0 0-.773-1.366zm.75 6.77a1.12 1.12 0 0 0-.705-.449 1.29 1.29 0 0 0-.842.186L42 81.936c-.237.167-.4.42-.45.705-.026.143-.025.3.006.433a1.2 1.2 0 0 0 .172.397c.082.12.188.222.3.3s.26.133.403.16a1.29 1.29 0 0 0 .842-.186l4.283-2.297a1.1 1.1 0 0 0 .449-.705c.05-.294-.016-.596-.186-.842zm2.3 3.332a1.12 1.12 0 0 0-1.477.529l-2.036 5.555a1.15 1.15 0 0 0-.03.844 1.14 1.14 0 0 0 .558.634 1.12 1.12 0 0 0 1.476-.529l2.036-5.555a1.15 1.15 0 0 0 .03-.845c-.098-.275-.298-.502-.56-.634zm7.424 4.184l-.235-1.892c-.032-.292-.172-.56-.393-.755-.167-.14-.373-.23-.6-.254a1.11 1.11 0 0 0-.632.117c-.194.1-.355.257-.46.45a1.12 1.12 0 0 0-.134.63l.235 1.892a1.16 1.16 0 0 0 .393.752 1.11 1.11 0 0 0 1.819-.94l-.002.002zm6.77-3.008l-5.565-5.52a1.11 1.11 0 0 0-1.616-.141 1.11 1.11 0 0 0-.029 1.623l5.565 5.52a1.11 1.11 0 0 0 1.646-1.481zm1.173-7.477a1.23 1.23 0 0 0-.705-.45l-2.633-.658a1.11 1.11 0 0 0-1.105 1.733 1.2 1.2 0 0 0 .705.45l2.633.658a1.11 1.11 0 0 0 1.105-1.735zm2.214-5.387a1.13 1.13 0 0 0-1.373-.762L58.88 72.57a1.11 1.11 0 1 0 .613 2.135l7.464-1.787a1.13 1.13 0 0 0 .66-.53c.142-.255.18-.56.1-.842zm-6.02-5.688a1.12 1.12 0 0 0-.811-.256l-.3.066a1.1 1.1 0 0 0-.47.327l-2.135 2.144a1.1 1.1 0 0 0-.136 1.225 1.11 1.11 0 0 0 1.08.593l.3-.064c.182-.067.344-.18.47-.327l2.134-2.144a1.11 1.11 0 0 0 .257-.81c-.013-.145-.054-.286-.12-.416s-.16-.244-.272-.338zm-5.178-3.655a1.14 1.14 0 0 0-1.291.891l-1.7 6.582a1.1 1.1 0 0 0 .18.83c.168.242.423.4.712.463a1.14 1.14 0 0 0 1.29-.891l1.7-6.582c.052-.3-.013-.588-.18-.83a1.11 1.11 0 0 0-.71-.463z"/></g><path d="M49.73 90.026a2.43 2.43 0 0 1-4.15 1.718 2.43 2.43 0 0 1 1.723-4.149 2.43 2.43 0 0 1 .93.184c.295.122.563.3.788.527s.404.494.526.8.184.6.184.93zm4.75-1.133a2.04 2.04 0 0 1 1.257-1.885 2.04 2.04 0 0 1 2.78 1.485 2.02 2.02 0 0 1-.117 1.178 2.04 2.04 0 0 1-1.885 1.257c-.54 0-1.058-.214-1.44-.596s-.596-.9-.596-1.44zm-13.592-2.08c1.533 0 2.776-1.243 2.776-2.776s-1.243-2.776-2.776-2.776-2.776 1.243-2.776 2.776 1.243 2.776 2.776 2.776zm1.355-13.964a2.56 2.56 0 0 1-4.235 2.108 2.56 2.56 0 0 1 1.506-4.485 2.56 2.56 0 0 1 2.729 2.377zM51 62.554a2.64 2.64 0 0 1-4.611 1.594 2.64 2.64 0 0 1 2.136-4.387 2.64 2.64 0 0 1 .996.261c.312.152.6.363.82.623s.407.56.52.9.16.674.14 1.02zm8.533-.614a2.86 2.86 0 0 1-4.884 2.026 2.86 2.86 0 0 1 2.022-4.885c.376 0 .748.073 1.095.217a2.86 2.86 0 0 1 1.766 2.642zm2.62 5.84a2.231 2.231 0 1 0 0-4.462 2.231 2.231 0 1 0 0 4.462zm7.423 10.035c0 .537-.158 1.062-.456 1.508a2.71 2.71 0 0 1-2.785 1.155 2.83 2.83 0 0 1-1.4-.743c-.4-.38-.638-.863-.743-1.4s-.05-1.072.155-1.568.554-.92 1-1.217a2.71 2.71 0 0 1 4.219 2.254zm-8.044 8.42a2.84 2.84 0 0 1 .296-1.618 2.82 2.82 0 0 1 1.145-1.18 2.84 2.84 0 0 1 1.608-.345c.558.047 1.1.257 1.53.606a2.83 2.83 0 0 1 .934 1.353c.17.534.18 1.106.025 1.644a2.83 2.83 0 0 1-.892 1.38c-.427.36-.953.6-1.5.653a2.83 2.83 0 0 1-2.084-.598 2.84 2.84 0 0 1-1.052-1.896zM65.47 71.73a2.82 2.82 0 0 1 4.559-2.518 2.82 2.82 0 0 1-1.423 5.01 2.82 2.82 0 0 1-3.136-2.492z" fill="#152b6a"/><path d="M41.26 66.12c-.182.23-.267.52-.238.813s.17.56.395.748l4.07 3.728a1.11 1.11 0 0 0 .383.205c.14.042.286.057.432.042a1.11 1.11 0 0 0 .75-.401 1.11 1.11 0 0 0 .247-.814 1.11 1.11 0 0 0-.401-.75l-4.07-3.728a1.12 1.12 0 0 0-1.568.157z" fill="#2a407f"/><path d="M42.697 67.87a2.82 2.82 0 0 1-4.667-2.312 2.82 2.82 0 0 1 4.928-1.685 2.82 2.82 0 0 1-.261 3.997zm6.026 7.484a1.42 1.42 0 0 1-1.705 1.391 1.42 1.42 0 0 1-.727-.393c-.198-.2-.333-.455-.386-.73a1.43 1.43 0 0 1 .086-.822 1.42 1.42 0 0 1 1.322-.869c.376.003.735.155 1 .422a1.42 1.42 0 0 1 .412 1.003zm4.003 6.22a1.56 1.56 0 0 1-2.664 1.107 1.56 1.56 0 0 1 1.103-2.665 1.56 1.56 0 0 1 1.561 1.559zm3.724-7.696a2.56 2.56 0 0 1-1.581 2.37 2.56 2.56 0 0 1-3.349-3.349c.194-.468.523-.868.945-1.15a2.56 2.56 0 0 1 3.985 2.129zm3.044 4.676a1.1 1.1 0 0 1-.187.615c-.122.182-.295.324-.497.408s-.425.106-.64.063a1.11 1.11 0 0 1-.87-.87c-.043-.215-.02-.437.063-.64a1.1 1.1 0 0 1 .408-.497c.182-.122.396-.187.615-.187a1.11 1.11 0 0 1 .783.324c.208.207.324.5.324.783zm-2.986 3.138c.235 0 .425-.2.425-.425s-.2-.425-.425-.425-.425.2-.425.425.2.425.425.425zm-5.385-12.02a.98.98 0 0 1-.165.54.97.97 0 0 1-.438.358c-.178.073-.374.093-.563.055a.98.98 0 0 1-.5-.267.93.93 0 0 1-.267-.5.96.96 0 0 1 .055-.563.99.99 0 0 1 .358-.438c.16-.108.348-.165.54-.166a.98.98 0 0 1 .978.978zm8.604 1.582c0 .255-.076.503-.218.715a1.29 1.29 0 0 1-2.333-.465 1.29 1.29 0 0 1 .546-1.322c.212-.142.46-.218.715-.218a1.29 1.29 0 0 1 1.291 1.291z" fill="#152b6a"/><g fill="#2a407f"><path d="M30.548 44.962c0 1.698-.503 3.358-1.447 4.77s-2.284 2.512-3.853 3.162-3.295.82-4.96.49-3.195-1.15-4.396-2.35-2.018-2.73-2.35-4.396-.16-3.392.49-4.96 1.75-2.9 3.162-3.853 3.072-1.447 4.77-1.447c2.277 0 4.46.904 6.07 2.515s2.514 3.794 2.514 6.07z"/><path d="M21.43 39.8l-2.278-5.825a.94.94 0 0 0-1.787.545l2.28 5.825a.94.94 0 0 0 1.202.74.94.94 0 0 0 .583-1.285zm-4.53 2.665l-5.146-.865a.96.96 0 0 0-1.15.651.94.94 0 0 0 .651 1.15l5.137.863a.96.96 0 0 0 1.15-.651.94.94 0 0 0-.642-1.147zm.64 5.695a.94.94 0 0 0-.592-.381 1.12 1.12 0 0 0-.705.157L12.64 49.88a.94.94 0 0 0-.378.592.95.95 0 0 0 .157.705.94.94 0 0 0 .592.378 1.09 1.09 0 0 0 .705-.155l3.602-1.932a.94.94 0 0 0 .378-.592c.042-.247-.015-.5-.157-.705zm1.945 2.8a.94.94 0 0 0-1.244.444l-1.7 4.673a.94.94 0 0 0-.024.7 1 1 0 0 0 .47.534.94.94 0 0 0 1.244-.444l1.7-4.674a.96.96 0 0 0-.444-1.244zm6.243 3.53l-.208-1.6a.98.98 0 0 0-.33-.632.94.94 0 0 0-1.316.115.91.91 0 0 0-.175.318c-.037.116-.05.24-.04.36l.207 1.6a.97.97 0 0 0 .33.635.94.94 0 0 0 1.531-.797zm5.692-2.54l-4.678-4.643a.94.94 0 0 0-1.391 1.246l4.678 4.643a.94.94 0 0 0 1.392-1.246zm.987-6.293a1.02 1.02 0 0 0-.593-.38l-2.214-.552a.94.94 0 0 0-1.084.747c-.042.246.013.5.155.705a1.04 1.04 0 0 0 .595.378l2.215.552a.94.94 0 0 0 .94-1.457l-.014.005zm1.87-4.527a.94.94 0 0 0-1.154-.639l-6.28 1.502a.94.94 0 0 0 .515 1.794l6.28-1.502a.94.94 0 0 0 .639-1.154zM29.2 36.358a.94.94 0 0 0-.682-.216l-.235.054a.94.94 0 0 0-.388.275L26.1 38.274a.94.94 0 0 0-.216.682.96.96 0 0 0 .331.635.94.94 0 0 0 .682.214l.235-.054a.94.94 0 0 0 .388-.275l1.796-1.803a.94.94 0 0 0-.115-1.314zm-4.355-3.075a.96.96 0 0 0-1.088.75l-1.43 5.54a.94.94 0 0 0 .75 1.088c.243.038.5-.018.693-.158s.343-.352.393-.592l1.432-5.543a.94.94 0 0 0-.75-1.086z"/></g><path d="M19.135 56.684c0 .404-.12.8-.344 1.135a2.04 2.04 0 0 1-.917.752c-.374.154-.784.195-1.18.116a2.04 2.04 0 0 1-1.046-.56c-.286-.287-.48-.65-.56-1.046s-.038-.807.116-1.18.416-.692.752-.917a2.04 2.04 0 0 1 1.135-.344c.542 0 1.06.215 1.445.598s.598.903.598 1.445zm5.712.76c.947 0 1.714-.767 1.714-1.714s-.767-1.714-1.714-1.714-1.714.767-1.714 1.714.767 1.714 1.714 1.714zm-10.81-5.797a2.34 2.34 0 0 1-.393 1.297 2.33 2.33 0 0 1-2.395.993c-.452-.1-.87-.312-1.195-.638s-.55-.742-.64-1.195-.044-.922.132-1.35.475-.8.86-1.048.835-.394 1.296-.395c.62 0 1.213.246 1.652.684a2.33 2.33 0 0 1 .685 1.65zm-1.198-9.4a2.15 2.15 0 0 1-3.559 1.77 2.15 2.15 0 0 1 1.264-3.768c.57-.04 1.13.15 1.56.524s.694.905.734 1.474zm7.366-8.66a2.22 2.22 0 0 1-3.876 1.336 2.22 2.22 0 0 1 1.793-3.687 2.22 2.22 0 0 1 2.083 2.351zm7.18-.517a2.41 2.41 0 0 1-.404 1.337 2.4 2.4 0 0 1-1.08.887 2.43 2.43 0 0 1-1.4.138 2.35 2.35 0 0 1-1.232-.658 2.42 2.42 0 0 1-.66-1.23 2.45 2.45 0 0 1 .136-1.4 2.41 2.41 0 0 1 .886-1.08c.386-.265.86-.405 1.336-.405.637 0 1.25.253 1.7.704a2.41 2.41 0 0 1 .705 1.7zm2.2 4.913c1.036 0 1.876-.84 1.876-1.876s-.84-1.876-1.876-1.876-1.876.84-1.876 1.876.84 1.876 1.876 1.876zm6.243 8.442a2.28 2.28 0 0 1-2.728 2.239c-.443-.088-.85-.305-1.17-.625a2.28 2.28 0 0 1 .346-3.513 2.29 2.29 0 0 1 1.268-.385 2.28 2.28 0 0 1 2.283 2.283zm-6.762 7.083a2.39 2.39 0 0 1 .248-1.362 2.37 2.37 0 0 1 .963-.994c.413-.23.883-.33 1.353-.3s.918.216 1.287.5.643.7.787 1.14a2.38 2.38 0 0 1 .02 1.384c-.13.454-.392.858-.75 1.163a2.38 2.38 0 0 1-3.023.048c-.245-.195-.45-.436-.6-.7a2.38 2.38 0 0 1-.283-.886zm3.305-12.203a2.39 2.39 0 0 1 .248-1.362 2.37 2.37 0 0 1 .963-.994c.413-.23.883-.33 1.353-.3s.918.216 1.287.5.643.7.787 1.14a2.38 2.38 0 0 1-.73 2.547 2.39 2.39 0 0 1-1.27.55 2.38 2.38 0 0 1-2.637-2.097z" fill="#152b6a"/><path d="M12.015 36.577a.94.94 0 0 0 .132 1.314l3.425 3.136a.94.94 0 0 0 1.224-.208.94.94 0 0 0-.049-1.241l-3.425-3.136a.94.94 0 0 0-1.307.134z" fill="#2a407f"/><path d="M13.224 38.048c-.354.3-.793.5-1.26.572a2.3 2.3 0 0 1-1.366-.225 2.38 2.38 0 0 1-1.01-.945 2.39 2.39 0 0 1 .172-2.644c.287-.376.678-.655 1.125-.807a2.38 2.38 0 0 1 1.383-.046 2.39 2.39 0 0 1 1.642 1.535c.1.295.142.6.122.922a2.38 2.38 0 0 1-.241.899 2.37 2.37 0 0 1-.566.738zm5.064 6.296c0 .236-.07.468-.203.664a1.21 1.21 0 0 1-.538.44 1.19 1.19 0 0 1-.69.067c-.23-.047-.445-.16-.612-.328s-.28-.38-.327-.613-.022-.472.07-.7.244-.405.44-.537a1.19 1.19 0 0 1 .665-.2 1.2 1.2 0 0 1 .459.091c.145.06.277.15.388.26s.2.244.26.4.1.3.1.46zm3.362 5.233c0 .26-.077.514-.22.73a1.28 1.28 0 0 1-.6.484c-.25.1-.504.126-.76.075a1.31 1.31 0 0 1-.673-.36c-.183-.184-.3-.418-.36-.673a1.32 1.32 0 0 1 .075-.76c.1-.24.268-.445.484-.6s.47-.22.73-.22c.173 0 .344.033.503.1a1.31 1.31 0 0 1 .81 1.215zm.98-4.33c1.2 0 2.153-.964 2.153-2.153s-.964-2.153-2.153-2.153-2.153.964-2.153 2.153.964 2.153 2.153 2.153zm4.72 1.79a.94.94 0 0 1-1.606.665.94.94 0 0 1 .665-1.606.94.94 0 0 1 .94.94zm-2.158 2.28a.36.36 0 0 1-.614.258.36.36 0 0 1 .254-.615c.047 0 .094.01.137.026s.083.044.117.077a.35.35 0 0 1 .078.116c.018.043.027.1.027.137zm-4.892-9.76a.81.81 0 0 1-.14.457.84.84 0 0 1-.37.303.81.81 0 0 1-.476.047.82.82 0 0 1-.296-1.491c.135-.1.294-.14.457-.14a.83.83 0 0 1 .582.24.82.82 0 0 1 .24.582zm7.253 1.34a1.09 1.09 0 0 1-.182.604c-.12.18-.3.32-.487.4s-.417.104-.628.062-.405-.145-.557-.297a1.08 1.08 0 0 1-.297-.557c-.04-.21-.02-.43.062-.628a1.09 1.09 0 0 1 1.004-.669c.142 0 .283.028.415.082a1.08 1.08 0 0 1 .352.235 1.07 1.07 0 0 1 .235.352c.055.132.082.272.082.415z" fill="#152b6a"/><path d="M37.958 23.146a3.34 3.34 0 0 1-.564 1.858c-.368.55-.9.98-1.5 1.232s-1.284.32-1.933.2a3.28 3.28 0 0 1-1.713-.916c-.468-.468-.787-1.064-.916-1.713a3.35 3.35 0 0 1 .19-1.933c.253-.61.682-1.134 1.232-1.5a3.36 3.36 0 0 1 1.86-.564 3.34 3.34 0 0 1 2.365.98 3.35 3.35 0 0 1 .98 2.366zM24.534 17.7c1.046 0 1.895-.848 1.895-1.895s-.85-1.905-1.895-1.905-1.895.848-1.895 1.895.848 1.895 1.895 1.895zm11.27 48.246a2.63 2.63 0 0 1-4.488 1.857 2.63 2.63 0 0 1 1.862-4.486 2.63 2.63 0 0 1 2.626 2.628zm48.35 6.702c0 .6-.174 1.164-.5 1.654a2.97 2.97 0 0 1-1.336 1.096 2.98 2.98 0 0 1-1.72.17 2.96 2.96 0 0 1-1.524-.815c-.416-.417-.7-.947-.815-1.524a2.97 2.97 0 0 1 .17-1.72 2.98 2.98 0 0 1 1.096-1.336c.49-.326 1.065-.502 1.654-.502.8 0 1.546.314 2.104.872s.872 1.315.872 2.104zm-8.322 12.438a1.002 1.002 0 1 0 0-2.003 1.002 1.002 0 1 0 0 2.003zm11.654-3.406c.001.33-.097.652-.28.927s-.443.488-.748.615-.64.16-.963.096a1.67 1.67 0 0 1-.854-.456c-.234-.233-.392-.53-.457-.853a1.66 1.66 0 0 1 .094-.963c.126-.303.34-.565.614-.748a1.67 1.67 0 0 1 .926-.28 1.66 1.66 0 0 1 1.178.486c.154.154.277.338.36.54s.127.42.127.638zm11.462-26.343a2.11 2.11 0 0 1-.357 1.175c-.233.347-.563.62-.95.78s-.812.202-1.222.12-.787-.283-1.083-.58a2.13 2.13 0 0 1-.58-1.083c-.083-.4-.04-.836.12-1.222a2.11 2.11 0 0 1 .78-.95c.35-.233.757-.357 1.175-.357.56 0 1.1.223 1.496.62a2.12 2.12 0 0 1 .62 1.496zm11.407-14.94c0 .444-.132.877-.378 1.246a2.24 2.24 0 0 1-1.007.826c-.4.17-.86.214-1.296.128s-.834-.3-1.148-.614-.527-.713-.614-1.148a2.24 2.24 0 0 1 .128-1.296c.17-.4.457-.76.826-1.007a2.24 2.24 0 0 1 2.832.279 2.24 2.24 0 0 1 .657 1.586zm-7.41 5.155c.001.17-.05.338-.144.48s-.23.253-.387.32a.86.86 0 0 1-.941-.186c-.12-.12-.203-.274-.237-.442a.87.87 0 0 1 .049-.499.86.86 0 0 1 .318-.388c.142-.095.3-.146.48-.146.228 0 .447.1.6.252s.253.38.253.608zm6.53 1.545a.68.68 0 0 1-.421.63.69.69 0 0 1-.394.04.68.68 0 0 1-.349-.187.69.69 0 0 1-.148-.743.7.7 0 0 1 .25-.306.68.68 0 0 1 1.061.567zm-98.374-19.15c1.963 0 3.554-1.6 3.554-3.555s-1.6-3.555-3.554-3.555-3.554 1.6-3.554 3.555 1.6 3.555 3.554 3.555zM9.118 14.683c0 .155-.046.306-.132.435s-.208.23-.35.288a.78.78 0 0 1-.452.045c-.152-.03-.3-.104-.4-.214s-.184-.248-.215-.4-.015-.3.044-.452.16-.265.287-.352a.77.77 0 0 1 .434-.133c.103 0 .205.02.3.06s.182.097.255.17.13.16.17.254a.77.77 0 0 1 .06.3zm-5.265 3.714c0 .38-.113.753-.324 1.07a1.93 1.93 0 0 1-.864.71c-.352.147-.74.184-1.112.1s-.717-.258-.986-.527-.453-.612-.527-.986-.036-.76.1-1.112a1.86 1.86 0 0 1 .71-.864 1.93 1.93 0 0 1 1.07-.325 1.92 1.92 0 0 1 1.36.564c.36.36.564.85.564 1.36z" fill="#2a407f"/></svg>