<svg xmlns="http://www.w3.org/2000/svg" width="127" height="89" fill="none"><path d="M113.513 60.725l-.09.04-1.315-3.27-14.543-35.017 23.233-.864c2.155 12.9 4.677 26.708 6.09 39.685l-13.375-.572z" fill="#152b6a"/><path d="M99 69.635c-1.06.004-2.108-.212-3.08-.635s-1.845-1.042-2.565-1.82l.088-.076c-.457-.904-.67-1.913-.617-2.925s.368-1.993.917-2.845a8.23 8.23 0 0 1 4.837-3.406c1.66-.417 3.386-.51 5.082-.272a2.07 2.07 0 0 1 .459.292c.924.786 1.59 1.832 1.91 3a6.05 6.05 0 0 1-.107 3.556 7.59 7.59 0 0 1-6.16 5.075 5.36 5.36 0 0 1-.766.054z" fill="#f9c391"/><path d="M28.052 22.19L14.626 59.794c-4.125-.06-10.484-.334-14.624-.533l10.822-43.59c4.61 1.423 12.516 2.726 18.143 3.956l-.915 2.562z" fill="#152b6a"/><g fill="#f9c391"><path d="M85.366 79.976a15.14 15.14 0 0 1-7.25-2.847 12.36 12.36 0 0 1-3.838-4.172l-.066-.447a6.99 6.99 0 0 1 3.166-6.319 8.82 8.82 0 0 1 5.81-1.05c1.98.335 3.902.95 5.708 1.828.388.254.833.4 1.295.452a2.86 2.86 0 0 0 1.356-.206 4.64 4.64 0 0 1 .596-.432c.142-.07.3-.104.458-.098s.312.053.448.135l.307.368a7.67 7.67 0 0 0 2.565 1.82c.972.423 2.02.64 3.08.635a12.53 12.53 0 0 1-12.982 10.393 5.88 5.88 0 0 1-.65-.059zM58.383 31.93l-33.05 30.845c-.13.113-.253.233-.37.358l-.736-.547a36.97 36.97 0 0 0-8.616-5.048l-.164-.064 12.6-35.284c8.802-.642 17.352-3.23 25.03-7.58a5.98 5.98 0 0 1 2.341-.918 5.27 5.27 0 0 1 1.988.317l11.456 3.436c2.412.7 4.778 1.548 7.085 2.542a23.59 23.59 0 0 1 .969.469 6.88 6.88 0 0 1 2.626 1.985 11.19 11.19 0 0 1 1.33 4.761c.923 5.082 4.506 9.448 4.97 14.594a2.87 2.87 0 0 1-.024 1.157 2.84 2.84 0 0 1-.484 1.052 1.8 1.8 0 0 1-.432.334c-.56.264-1.18.378-1.796.33a16.26 16.26 0 0 1-14.43-9.767 1.34 1.34 0 0 0-1.668-1.119c-2.987.15-5.962-.5-8.623-1.853z"/><path d="M62.6 75.427c.605-1.667 1.838-3.03 3.436-3.8 1.28-.54 2.676-.755 4.06-.626a8.45 8.45 0 0 1 3.876 1.362c.08.208.178.41.294.6a12.36 12.36 0 0 0 3.838 4.172c2.127 1.565 4.626 2.546 7.25 2.847a8.24 8.24 0 0 1-1.859 3.071c-.838.875-1.858 1.554-2.988 2a14.79 14.79 0 0 1-7.374.736l-.267-.037c-2.75-.283-5.364-1.345-7.53-3.063-.875-.736-1.595-1.638-2.118-2.654s-.84-2.126-.932-3.265c.048-.455.155-.902.316-1.33z"/><path d="M62.297 76.752c.092 1.14.41 2.25.932 3.265s1.244 1.918 2.118 2.654c2.167 1.718 4.78 2.78 7.53 3.063a10.81 10.81 0 0 1-4.004 2.536c-1.506.54-3.112.737-4.703.58s-3.128-.665-4.5-1.487-2.543-1.94-3.432-3.268a6.71 6.71 0 0 1-1.148-2.879c-.056-.408-.048-.822.024-1.227.177-.87.585-1.674 1.18-2.33.748-.845 1.692-1.494 2.748-1.89s2.194-.528 3.313-.384c-.066.453-.086.912-.06 1.37z"/></g><path d="M112.112 57.488l-7.98.478c-.143-.116-.296-.218-.46-.304a13.25 13.25 0 0 0-5.08.282 8.17 8.17 0 0 0-4.84 3.401c-.55.853-.867 1.835-.92 2.85s.158 2.024.614 2.93l-.086.064a2.49 2.49 0 0 1-.307-.371 1.04 1.04 0 0 0-.453-.128c-.16-.008-.317.02-.463.084a6.18 6.18 0 0 0-.589.437c-.783.523-1.787.133-2.66-.245a20.49 20.49 0 0 0-5.688-1.831c-2.004-.322-4.057.047-5.823 1.045-1.04.68-1.88 1.625-2.434 2.736s-.806 2.35-.727 3.59c-.068-.057-.14-.108-.218-.152-1.162-.763-2.494-1.228-3.878-1.354a8.45 8.45 0 0 0-4.058.635 6.77 6.77 0 0 0-3.436 3.794c-.086-.022-.174-.022-.26-.044-1.12-.144-2.255-.013-3.312.382s-2 1.043-2.75 1.885c-.586.663-.992 1.466-1.178 2.33-.063.406-.07.82-.022 1.227-3.023 1.133-6.307 1.375-9.463.697-.064 0-.152-.022-.196-.022a10.06 10.06 0 0 1-3.661-1.546 5.7 5.7 0 0 1-2.093-2.812 12.1 12.1 0 0 1-2.771.412c-1.45.035-2.882-.327-4.142-1.046a6.99 6.99 0 0 1-1.09-.874c-.68-.666-1.142-1.523-1.324-2.457s-.078-1.902.3-2.775l-.022-.304a6.65 6.65 0 0 1-6.381-3.73 3.45 3.45 0 0 1-.304-2.135 3.5 3.5 0 0 1 1.004-1.473c.112-.13.236-.246.37-.35l33.054-30.85a17.09 17.09 0 0 0 8.611 1.853 1.88 1.88 0 0 1 .982.108c.333.252.577.604.697 1.004a16.23 16.23 0 0 0 14.435 9.767c.615.05 1.23-.063 1.79-.326.16-.09.305-.2.434-.326a2.91 2.91 0 0 0 .491-2.223c-.46-5.154-4.034-9.507-4.972-14.587a11.1 11.1 0 0 0-1.33-4.776 7.17 7.17 0 0 0-2.616-1.985l-.982-.456c-2.304-1.005-4.672-1.857-7.087-2.552l-11.446-3.42c-.634-.237-1.31-.35-1.985-.33-.842.14-1.645.46-2.353.937-3.235 1.837-6.637 3.363-10.16 4.557l-.022-.13c-1.316.176-2.655.077-3.93-.29s-2.462-.997-3.483-1.847c-1.026-.87-1.875-2.398-1.1-3.487.45-.496 1.056-.826 1.718-.937 3.86-.728 7.628-1.892 11.227-3.468a12.05 12.05 0 0 1 4.317-1.941c1.637-.022 3.25.402 4.663 1.227l35.353 16.442-.022.064c2.363.394 4.756.57 7.15.525l13.337 32.143z" fill="#fad5b3"/><path d="M53.454 50.386a276.77 276.77 0 0 1-14.356 12.577 69.32 69.32 0 0 1-7.06 5.51c-2.744 1.696-4.785-.785-6.275-2.888a1.09 1.09 0 0 0-1.487-.212 1.09 1.09 0 0 0-.292 1.474c1.473 2.084 3.492 4.513 6.307 4.444a6.64 6.64 0 0 0 3.698-1.514l4.36-3.4c5.787-4.63 11.38-9.5 16.776-14.577 1.02-.96-.658-2.353-1.67-1.4zm5.013 8.856a285.6 285.6 0 0 0-18.965 16.442c-1.018.965.66 2.356 1.67 1.4a281.26 281.26 0 0 1 18.553-16.059c1.095-.874-.157-2.66-1.26-1.784z" fill="#f9c391"/><path d="M61.843 33.033c0 1.62-.48 3.202-1.378 4.548s-2.177 2.396-3.673 3.015a8.19 8.19 0 0 1-4.73.466 8.17 8.17 0 0 1-4.19-2.24c-1.144-1.145-1.924-2.603-2.24-4.2a8.19 8.19 0 0 1 .466-4.73c.62-1.496 1.67-2.774 3.015-3.673s2.93-1.38 4.548-1.378a8.18 8.18 0 0 1 8.182 8.182zm9.157-8.8a7.05 7.05 0 0 0 7.046-7.046 7.04 7.04 0 1 0-14.092-.002A7.06 7.06 0 0 0 71 24.243zm-21.102-9.95c2.858 0 5.176-2.317 5.176-5.176S52.757 3.94 49.898 3.94s-5.176 2.317-5.176 5.176 2.317 5.176 5.176 5.176zM59.8 21.25c.001.278-.08.55-.235.78a1.41 1.41 0 0 1-.63.518c-.257.106-.54.135-.8.08a1.42 1.42 0 0 1-.72-.384c-.197-.197-.33-.446-.385-.72s-.027-.555.08-.8.286-.476.517-.63.502-.237.78-.237a1.4 1.4 0 0 1 1.403 1.402zm-18.867 6.48a2.88 2.88 0 0 1-4.914 2.035 2.88 2.88 0 0 1 2.036-4.914 2.88 2.88 0 0 1 2.879 2.879zm1.965 12.427a2.42 2.42 0 0 1-.407 1.348c-.267.398-.645.7-1.088.894a2.35 2.35 0 0 1-1.4.14c-.47-.092-.903-.324-1.242-.663s-.57-.77-.664-1.24-.046-.958.138-1.4a2.43 2.43 0 0 1 2.24-1.498 2.42 2.42 0 0 1 1.714.71c.454.455.7 1.07.7 1.713zM70.1 48a2.11 2.11 0 0 1-.35 1.153c-.227.34-.553.607-.932.764a2.07 2.07 0 0 1-2.262-.453c-.3-.292-.488-.66-.568-1.063s-.04-.82.12-1.2.423-.703.765-.93.743-.35 1.153-.35c.273 0 .543.054.795.158s.48.258.674.45.346.422.45.674.158.522.157.795zm1.858-15.465a1.87 1.87 0 0 0 1.872-1.872c0-1.034-.838-1.873-1.872-1.873s-1.873.838-1.873 1.873a1.87 1.87 0 0 0 1.873 1.872zm-2.54-28.747a3.79 3.79 0 0 1-6.47 2.679A3.79 3.79 0 0 1 65.63 0a3.76 3.76 0 0 1 1.45.288 3.93 3.93 0 0 1 1.23.82 3.74 3.74 0 0 1 .82 1.23c.2.46.288.952.288 1.45z" fill="#152b6a"/></svg>