<svg xmlns="http://www.w3.org/2000/svg" width="491" height="491" fill="none"><style><![CDATA[.B{fill:#162871}.C{fill:#20327d}.D{fill:#142863}.E{fill:#edf8f9}.F{fill:#f2a064}.G{fill:#ffc494}]]></style><path d="M367.944 367.944c67.737-67.736 67.737-177.56 0-245.296s-177.56-67.737-245.296 0-67.737 177.56 0 245.296 177.56 67.737 245.296 0z" fill="url(#A)"/><path d="M91.346 295.525a15.32 15.32 0 0 1 3.629-8.12c1.986-2.288 4.606-3.935 7.528-4.734a15.32 15.32 0 0 1 16.145 5.388 15.31 15.31 0 0 1 1.2 16.978c-1.5 2.632-3.75 4.76-6.46 6.113a15.32 15.32 0 0 1-8.767 1.494c-1.996-.252-3.923-.895-5.67-1.892s-3.28-2.328-4.514-3.918a15.31 15.31 0 0 1-2.671-5.347c-.53-1.94-.673-3.967-.42-5.962z" class="B"/><path d="M103.38 296.214a3.6 3.6 0 0 1-1.914-.86 3.61 3.61 0 0 1-1.114-1.778 3.63 3.63 0 0 1 1.276-3.809c.566-.437 1.248-.697 1.96-.747s1.425.113 2.046.468a3.61 3.61 0 0 1 1.794 3.595 3.62 3.62 0 0 1-1.376 2.404c-.76.588-1.72.85-2.674.73zm6.986 12.254c-1.06-.134-2.058-.58-2.866-1.28s-1.4-1.626-1.672-2.658-.252-2.124.087-3.138a5.4 5.4 0 0 1 1.816-2.562c.845-.655 1.865-1.045 2.932-1.12s2.133.168 3.062.698 1.68 1.323 2.158 2.28a5.41 5.41 0 0 1 .527 3.095 5.39 5.39 0 0 1-.666 2.003 5.4 5.4 0 0 1-5.378 2.684zm1.787-13.693a2.36 2.36 0 0 1-1.976-1.713 2.35 2.35 0 0 1 .037-1.365c.148-.442.422-.83.8-1.115a2.35 2.35 0 0 1 3.777 2.154 2.35 2.35 0 0 1-2.628 2.039z" class="C"/><g class="B"><path d="M118.33 326.325a5.66 5.66 0 0 0 1.02-2.48l3.336.675c1.578-2.663 3.722-4.947 6.28-6.7s5.47-2.9 8.526-3.394l.715-4.417h.04c.493.064.994.01 1.46-.157l.477 4.32c5.28-.168 10.43 1.657 14.424 5.113l1.825-.963c.205.5.57.897 1.034 1.154-.448.428-.858.874-1.256 1.335a21.03 21.03 0 0 1 5.715 14.074l3.24.764a3.45 3.45 0 0 0-.348.584 4.97 4.97 0 0 0-.474 2.602l-2.787.394c-.6 3.173-1.93 6.163-3.883 8.736a98.37 98.37 0 0 0 2.46 4.177 2.03 2.03 0 0 0-1.285.834l-3.033-2.86c-2.274 2.296-5.047 4.037-8.102 5.1a21.06 21.06 0 0 1-9.519.978 20.81 20.81 0 0 1-4.69-1.156c-.56.912-1.094 1.827-1.632 2.755a5.11 5.11 0 0 0-2.307-1.445c.286-.92.54-1.844.8-2.767-4.725-2.69-8.225-7.107-9.766-12.32a62.45 62.45 0 0 0-2.106.48c-.153-.67-.47-1.3-.923-1.807l2.472-.998a21.09 21.09 0 0 1-.147-6.31 21.54 21.54 0 0 1 1.32-5.154l-2.897-1.145z"/><path d="M119.352 323.846c-.137.896-.487 1.746-1.02 2.48-.85 1.196-2.108 2.04-3.537 2.373a6.02 6.02 0 0 1-4.221-.566 6.01 6.01 0 0 1-2.787-3.22c-.506-1.377-.5-2.892.044-4.258a6.01 6.01 0 0 1 7.086-3.639c1.422.363 2.662 1.233 3.487 2.446a6.01 6.01 0 0 1 .992 4.142 1.44 1.44 0 0 1-.043.243zm-.845 17.887c.103.47.126.957.067 1.436a4.11 4.11 0 0 1-4.245 3.579c-1.028-.042-2-.467-2.73-1.2a4.1 4.1 0 0 1-1.208-2.723 4.11 4.11 0 0 1 6.45-3.57 4.12 4.12 0 0 1 1.666 2.469zm11.06 14.607c1.26.37 2.33 1.212 2.984 2.353a5.09 5.09 0 0 1-5.447 7.517c-1.287-.266-2.42-1.02-3.165-2.103a5.09 5.09 0 0 1 1.145-6.959c1.052-.787 2.368-1.137 3.673-.977a5.91 5.91 0 0 1 .81.168z"/></g><path d="M134.764 331.614a3.4 3.4 0 0 1-1.803-.798c-.51-.44-.876-1.02-1.055-1.666a3.4 3.4 0 0 1 1.186-3.583 3.39 3.39 0 0 1 3.764-.271c.584.332 1.056.83 1.356 1.43a3.39 3.39 0 0 1-.951 4.195c-.708.552-1.606.8-2.497.692z" class="C"/><path d="M138.215 310.02c-.63-.086-1.22-.356-1.696-.777a3.22 3.22 0 0 1-.915-3.452 3.23 3.23 0 0 1 1.089-1.515c.505-.386 1.112-.615 1.746-.656s1.267.105 1.817.422a3.23 3.23 0 0 1 1.278 1.36 3.22 3.22 0 0 1 .308 1.84 3.18 3.18 0 0 1-.686 1.62c-.376.464-.876.813-1.442 1.007-.467.167-.968.22-1.46.156l-.04-.005z" class="B"/><path d="M153.88 338.933a5.11 5.11 0 0 1-2.704-1.211 5.1 5.1 0 0 1-1.575-2.509c-.266-.974-.237-2.005.084-2.962a5.1 5.1 0 0 1 1.715-2.415c.798-.618 1.76-.985 2.768-1.056a5.1 5.1 0 0 1 4.922 2.813 5.11 5.11 0 0 1-.134 4.81 5.09 5.09 0 0 1-1.306 1.504c-.53.4-1.136.712-1.783.888s-1.322.222-1.987.137zm-7.367-13.383a2.76 2.76 0 0 1-2.323-2.016 2.77 2.77 0 0 1 .044-1.607 2.75 2.75 0 0 1 .93-1.31c.433-.334.955-.536 1.5-.575a2.77 2.77 0 0 1 2.672 1.524 2.77 2.77 0 0 1 .27 1.585 2.78 2.78 0 0 1-1.052 1.84 2.77 2.77 0 0 1-2.043.561z" class="C"/><path d="M157.476 319.492a2.36 2.36 0 0 1-1.034-1.154c-.205-.423-.282-.898-.22-1.364a2.54 2.54 0 0 1 1.854-2.128 2.53 2.53 0 0 1 1.474.042 2.55 2.55 0 0 1 1.203.853 2.54 2.54 0 0 1 .201 2.814 2.55 2.55 0 0 1-1.069 1.016c-.45.225-.955.312-1.453.25a2.46 2.46 0 0 1-.955-.33zm1.376 33.493a2.04 2.04 0 0 1 1.285-.834c.233-.06.475-.074.713-.04.424.054.822.232 1.145.512a2.15 2.15 0 0 1 .668 1.061 2.16 2.16 0 0 1-.034 1.254c-.136.406-.388.762-.726 1.023a2.16 2.16 0 0 1-3.466-1.98 2.04 2.04 0 0 1 .415-.995zm5.496-14.147a4.96 4.96 0 0 1 .474-2.6 3.42 3.42 0 0 1 .348-.585 4.94 4.94 0 0 1 2.74-1.99 4.93 4.93 0 0 1 6.129 5.977c-.3 1.126-.97 2.114-1.92 2.788a4.93 4.93 0 0 1-3.264.895 4.94 4.94 0 0 1-4.507-4.485zm-16.615-42.566a7.24 7.24 0 0 1 5.279-6.08c1.383-.378 2.846-.337 4.206.117s2.553 1.3 3.432 2.433a7.25 7.25 0 0 1 .567 8.032c-.7 1.245-1.774 2.25-3.056 2.892a7.25 7.25 0 0 1-4.148.706c-.944-.12-1.855-.423-2.682-.895a7.25 7.25 0 0 1-3.399-4.384 7.29 7.29 0 0 1-.2-2.82z" class="B"/><path d="M153.425 296.6c-.336-.043-.65-.184-.906-.407a1.7 1.7 0 0 1-.527-.84c-.087-.325-.08-.672.028-.993a1.65 1.65 0 0 1 .575-.8 1.82 1.82 0 0 1 .928-.354 1.73 1.73 0 0 1 .968.22c.294.167.532.418.683.72s.2.643.168.98a1.71 1.71 0 0 1-.65 1.14 1.73 1.73 0 0 1-.599.299 1.71 1.71 0 0 1-.668.045zm3.307 5.796a2.55 2.55 0 0 1-1.356-.606c-.382-.33-.658-.77-.8-1.257a2.55 2.55 0 0 1 .041-1.485c.16-.48.46-.9.858-1.212a2.54 2.54 0 0 1 1.388-.53 2.55 2.55 0 0 1 1.448.33c.44.25.795.626 1.02 1.08s.313.962.25 1.464a2.56 2.56 0 0 1-.315.947 2.57 2.57 0 0 1-1.547 1.2c-.324.088-.662.112-.996.07zm.845-6.476c-.22-.028-.424-.12-.6-.264a1.12 1.12 0 0 1-.345-.547 1.11 1.11 0 0 1 .018-.646 1.17 1.17 0 0 1 .373-.528 1.12 1.12 0 0 1 1.68.382c.098.197.136.42.108.637-.037.293-.2.56-.422.74a1.12 1.12 0 0 1-.82.226z" class="C"/><path d="M357.99 200.774c11.94-5.27 17.345-19.224 12.074-31.164s-19.225-17.345-31.165-12.074-17.345 19.225-12.073 31.165 19.224 17.345 31.164 12.073z" class="B"/><path d="M326.98 176.92a4 4 0 0 1-.186-2.318c.168-.774.562-1.48 1.133-2.03a4 4 0 0 1 2.07-1.059c.78-.14 1.583-.047 2.3.27s1.342.84 1.77 1.508a3.99 3.99 0 0 1 .635 2.237 4 4 0 0 1-.715 2.212c-.452.65-1.086 1.153-1.823 1.443-.99.388-2.09.367-3.065-.056s-1.74-1.217-2.13-2.205z" class="C"/><path d="M332.6 147.595a6.53 6.53 0 0 1 3.929-.272 6.52 6.52 0 0 1 3.37 2.037 6.54 6.54 0 0 1 1.585 3.606 6.53 6.53 0 0 1-.777 3.861 6.19 6.19 0 0 1-1.62 1.92l2.114 1.877-.04.033c-.498.795-1.208 1.434-2.05 1.845a5.03 5.03 0 0 1-2.715.486l-.135-2.883v-.033a6.31 6.31 0 0 1-1.89.097 6.53 6.53 0 0 1-5.831-5.596c-.203-1.452.1-2.93.83-4.196a6.53 6.53 0 0 1 3.247-2.783h-.016zm-13 38.825a4.08 4.08 0 0 1-2.363.19c-.79-.172-1.5-.574-2.07-1.155s-.937-1.315-1.08-2.1a4.08 4.08 0 0 1 .275-2.354c.322-.74.857-1.37 1.536-1.805a4.09 4.09 0 0 1 2.28-.647c.807.015 1.592.268 2.255.73s1.175 1.108 1.47 1.86a3.56 3.56 0 0 1 .135.405l2.835-.55 2.006-.397v.008l.15.306a2.78 2.78 0 0 1 .27 1.507c-.038.327-.17.635-.38.888l-1.765-.08-3.018-.025c-.1.714-.385 1.4-.83 1.958a4.07 4.07 0 0 1-1.704 1.273zm7.194-17.666a6.29 6.29 0 0 1-2.295 1.559 6.39 6.39 0 0 1-8.01-2.948c-.738-1.392-.936-3.007-.557-4.535s1.3-2.864 2.613-3.75a6.39 6.39 0 0 1 4.448-1.048c1.56.2 3 1 4.012 2.188s1.565 2.732 1.527 4.306-.658 3.08-1.738 4.227zm39.456-5.134c.5-.66 1.156-1.17 1.923-1.468a4.46 4.46 0 0 1 5.744 2.538 4.47 4.47 0 0 1-2.478 5.772 4.08 4.08 0 0 1-.933.247c-.878.14-1.78.015-2.585-.36a4.46 4.46 0 0 1-1.94-1.746 4.45 4.45 0 0 1-.629-2.533 4.46 4.46 0 0 1 .897-2.45zm-37.86 6.685l-.014.015c-.46-.387-.9-.805-1.293-1.252.436-.953.947-1.87 1.528-2.744.592.202 1.198.363 1.813.482a3.28 3.28 0 0 1-.414 2.1 3.3 3.3 0 0 1-1.62 1.4zm27.202-25.467a5.38 5.38 0 0 1 4.117.074 5.39 5.39 0 0 1 2.86 2.964 5.38 5.38 0 0 1-3.038 6.977c-.526.2-1.082.33-1.647.357v.08l-.445 2.024-1.543 6.143c-1.187-.034-2.363-.248-3.487-.636a5.64 5.64 0 0 1-2.066-1.34l.045-.045 2.88-5.4 1.027-1.77.065-.1a5.29 5.29 0 0 1-1.81-2.351c-.52-1.33-.494-2.8.077-4.12s1.637-2.336 2.966-2.858z" class="B"/><path d="M345.528 166.755c.267.68.326 1.426.17 2.14a3.7 3.7 0 0 1-2.959 2.853 3.71 3.71 0 0 1-2.134-.25c-.67-.292-1.24-.776-1.635-1.392a3.7 3.7 0 0 1 .073-4.11 3.7 3.7 0 0 1 1.684-1.333 3.68 3.68 0 0 1 1.422-.257c.486.008.966.113 1.412.307a3.69 3.69 0 0 1 1.187.825 3.71 3.71 0 0 1 .78 1.216z" class="C"/><path d="M354.4 209.545a6.11 6.11 0 0 1-2.345.422 6.1 6.1 0 0 1-4.284-1.869c-.556-.578-.994-1.26-1.286-2.006-.576-1.47-.56-3.106.044-4.564a6.11 6.11 0 0 1 3.196-3.259l-.068-.147-.692-1.755a7.56 7.56 0 0 1 5.555-.461l.135.073c-.342.668-.724 1.315-1.145 1.936a6.08 6.08 0 0 1 4.008 3.049c.12.218.227.443.317.675.6 1.505.56 3.182-.083 4.664s-1.85 2.648-3.352 3.243zm13.38-16.802l1.264 1.847c1.286-.777 2.814-1.053 4.3-.774a6.1 6.1 0 0 1 4.957 6.464 6.11 6.11 0 0 1-10.002 4.226 6.11 6.11 0 0 1-2.13-3.805c-.218-1.487.12-3.003.95-4.256l-1.688-.86-1.4-.657a5.13 5.13 0 0 1 1.035-2.084 5.12 5.12 0 0 1 1.85-1.412l.862 1.3zm-36.48 20.022c-.843.333-1.757.445-2.655.326a5.32 5.32 0 0 1-2.478-1.006c-.727-.54-1.304-1.26-1.676-2.085a5.33 5.33 0 0 1-.449-2.637c.077-.903.383-1.77.9-2.522a5.33 5.33 0 0 1 2.005-1.771 5.32 5.32 0 0 1 2.613-.572c.905.035 1.787.3 2.56.77l2.76-4.787.875-1.766a3.2 3.2 0 0 1 1.705.652 3.14 3.14 0 0 1 1.111 1.596l-1.125 1.08-4.136 4.206a5.23 5.23 0 0 1 .999 1.62 5.32 5.32 0 0 1-2.998 6.895z" class="B"/><path d="M359.803 190.448a2.9 2.9 0 0 1-1.676.133 2.89 2.89 0 0 1-1.468-.821 2.9 2.9 0 0 1-.57-3.168c.23-.525.608-.97 1.1-1.28s1.045-.47 1.618-.46 1.13.19 1.6.516a2.9 2.9 0 0 1 1.044 1.318c.14.354.21.733.202 1.114a2.89 2.89 0 0 1-.887 2.037 2.91 2.91 0 0 1-.954.611z" class="C"/><path d="M326.916 196.842c-.354.14-.74.178-1.113.114s-.725-.23-1.013-.478a2.1 2.1 0 0 1-.619-.933c-.118-.362-.135-.748-.048-1.12s.27-.7.536-.982.6-.468.967-.564a2.09 2.09 0 0 1 1.12.017c.364.108.693.313.95.593l1.303-.93 2.326-1.755c.25.393.383.85.383 1.316s-.133.923-.383 1.316l-1.293.54-1.808.737a2.08 2.08 0 0 1-.297 1.283c-.236.384-.6.68-1 .846z" class="B"/><path d="M343.356 185.27a4.17 4.17 0 0 1 .194 2.417 4.19 4.19 0 0 1-1.18 2.117c-.593.574-1.346.957-2.158 1.103a4.17 4.17 0 0 1-2.408-.281c-.757-.33-1.4-.877-1.846-1.572s-.676-1.506-.66-2.332a4.18 4.18 0 0 1 2.647-3.81c1.03-.403 2.18-.38 3.194.062a4.18 4.18 0 0 1 2.219 2.296zm20.574-11.526a3.2 3.2 0 0 1 .147 1.854c-.136.62-.452 1.183-.908 1.623a3.2 3.2 0 0 1-1.657.845 3.19 3.19 0 0 1-1.847-.22 3.2 3.2 0 0 1-1.415-1.207c-.342-.534-.518-1.156-.505-1.8s.212-1.25.574-1.77a3.2 3.2 0 0 1 1.46-1.152 3.18 3.18 0 0 1 1.23-.22c.43.008.835.1 1.22.267s.734.412 1.026.715a3.2 3.2 0 0 1 .673 1.053zm-12.13 10.014c-1.123.442-2.352.54-3.53.283a6.11 6.11 0 0 1-4.707-4.88 6.12 6.12 0 0 1 .411-3.519c.482-1.106 1.282-2.045 2.297-2.697a6.1 6.1 0 0 1 3.408-.967 6.11 6.11 0 0 1 3.371 1.089 6.1 6.1 0 0 1 2.62 5.122c-.015.802-.187 1.592-.507 2.327a6.09 6.09 0 0 1-1.359 1.955c-.577.557-1.257.994-2.003 1.287zm-3 3.872a2.91 2.91 0 0 1 1.686-.132 2.92 2.92 0 0 1 1.476.827 2.91 2.91 0 0 1 .568 3.187 2.92 2.92 0 0 1-1.098 1.287 2.93 2.93 0 0 1-1.628.46 2.91 2.91 0 0 1-2.657-1.849 2.92 2.92 0 0 1-.201-1.12 2.9 2.9 0 0 1 .244-1.112c.153-.35.374-.67.65-.934a2.94 2.94 0 0 1 .96-.614z" class="C"/><path d="M366.665 180.912l.156.093a21.69 21.69 0 0 1 3.088 1.294l.114.056a4.88 4.88 0 0 1 2.025-2.056 3.77 3.77 0 0 1 .553-.27 5.01 5.01 0 0 1 5.195.939 5.01 5.01 0 0 1 1.458 2.325c.26.895.265 1.846.015 2.744a5.01 5.01 0 0 1-6.619 3.334 5.02 5.02 0 0 1-2.196-1.646 4.83 4.83 0 0 1-.682-1.2 4.91 4.91 0 0 1-.341-1.727l-.088.01-3.192.022-.255.046c-.275-1.37.001-2.794.768-3.962zm-57.363-34.347c9.8-3.16 15.198-13.676 12.036-23.485s-13.676-15.198-23.485-12.036-15.198 13.676-12.037 23.485 13.677 15.198 23.486 12.036z" class="B"/><path d="M303.046 124.704a4.42 4.42 0 0 1-.2-2.55 4.41 4.41 0 0 1 3.529-3.391c.857-.153 1.74-.05 2.54.3a4.41 4.41 0 0 1 2.641 4.12 4.49 4.49 0 0 1-.787 2.433 4.41 4.41 0 0 1-2.006 1.585c-1.1.427-2.304.403-3.376-.065s-1.914-1.344-2.34-2.433zm-9.013 14.634a6.59 6.59 0 0 1-.303-3.813 6.58 6.58 0 0 1 9.07-4.632c1.194.52 2.207 1.385 2.9 2.48a6.59 6.59 0 0 1 1.042 3.68 6.58 6.58 0 0 1-1.178 3.638 6.61 6.61 0 0 1-5.53 2.828 6.59 6.59 0 0 1-2.513-.548c-.793-.346-1.5-.846-2.1-1.47s-1.07-1.36-1.387-2.165zm15.68-6.096c-.207-.527-.253-1.105-.132-1.658s.403-1.06.8-1.453.924-.657 1.48-.757a2.87 2.87 0 0 1 1.653.194 2.86 2.86 0 0 1 1.266 1.08 2.87 2.87 0 0 1 .454 1.6c-.01.567-.188 1.118-.512 1.583s-.777.825-1.305 1.032a2.87 2.87 0 0 1-2.193-.04c-.697-.304-1.245-.872-1.523-1.58z" class="C"/><g class="B"><path d="M285.745 156.575c1.962 5.006 9.743 1.965 7.78-3.048s-9.744-1.96-7.78 3.048zm-6.065 22.34c1.96 5.006 9.744 1.964 7.778-3.048s-9.744-1.964-7.778 3.048zm53.234-44.762c1.963 5.004 9.744 1.964 7.778-3.05s-9.745-1.964-7.778 3.05zm20.372-4.358c1.962 5.006 9.743 1.964 7.78-3.048s-9.744-1.964-7.78 3.048zm-6.69-15.526c1.962 5.005 9.744 1.965 7.778-3.05s-9.743-1.964-7.778 3.05zM98.478 232.623a4.08 4.08 0 0 0 .737-1.791l2.4.485a15.27 15.27 0 0 1 4.54-4.833 15.26 15.26 0 0 1 6.161-2.449l.517-3.193h.03a2.25 2.25 0 0 0 1.055-.113l.345 3.12a15.2 15.2 0 0 1 10.42 3.693l1.32-.693a1.7 1.7 0 0 0 .747.832 14.15 14.15 0 0 0-.907.964c2.6 2.756 4.06 6.38 4.12 10.16l2.345.552a2.51 2.51 0 0 0-.252.423c-.282.584-.4 1.233-.342 1.88l-2.014.285a15.07 15.07 0 0 1-2.805 6.311c.563 1 1.155 2.025 1.776 3.02a1.47 1.47 0 0 0-.927.602l-2.192-2.067a15.21 15.21 0 0 1-7.537 4.15c-2.86.63-5.84.42-8.582-.602a99.11 99.11 0 0 0-1.18 1.99 3.7 3.7 0 0 0-1.667-1.045c.207-.664.396-1.332.583-2a15.2 15.2 0 0 1-7.055-8.902c-.506.106-1.013.22-1.52.347-.1-.484-.34-.932-.668-1.305l1.787-.72c-.264-1.506-.3-3.043-.107-4.56a15.42 15.42 0 0 1 .955-3.723l-2.093-.82z"/><path d="M99.22 230.832a4.09 4.09 0 0 1-.741 1.792 4.34 4.34 0 0 1-7.614-1.026 4.34 4.34 0 0 1 5.151-5.7c1.026.263 1.922.9 2.517 1.767a4.34 4.34 0 0 1 .715 2.991c-.005.06-.015.117-.028.175zm-.605 12.923a3.07 3.07 0 0 1 .05 1.038c-.096.734-.463 1.406-1.03 1.884a2.96 2.96 0 0 1-3.997-.166 2.96 2.96 0 0 1 3.779-4.536 2.96 2.96 0 0 1 1.201 1.78zm7.988 10.555a3.69 3.69 0 0 1 1.667 1.045 3.67 3.67 0 0 1 .959 2.319 3.68 3.68 0 0 1-2.869 3.743c-.842.188-1.723.073-2.488-.324a3.67 3.67 0 0 1 2.149-6.903c.197.026.4.066.582.12z"/></g><path d="M110.36 236.444a2.45 2.45 0 0 1-2.067-1.779c-.13-.468-.117-.964.035-1.425s.44-.867.822-1.165.846-.476 1.33-.5.968.075 1.4.316.762.6.98 1.035.3.924.237 1.405a2.45 2.45 0 0 1-.926 1.623c-.51.398-1.158.577-1.8.5z" class="C"/><path d="M112.85 220.842c-.455-.062-.88-.258-1.225-.562a2.32 2.32 0 0 1-.659-2.493c.148-.434.422-.815.786-1.094s.803-.444 1.26-.474.915.076 1.312.305.72.57.923.982a2.32 2.32 0 0 1 .223 1.329 2.29 2.29 0 0 1-.495 1.17c-.272.336-.633.588-1.042.728-.338.12-.7.16-1.056.113l-.028-.004z" class="B"/><path d="M119.305 248.122a6.28 6.28 0 0 1-3.33-1.493 6.29 6.29 0 0 1-1.94-3.092c-.326-1.2-.3-2.47.104-3.65s1.13-2.215 2.114-2.976a6.29 6.29 0 0 1 6.969-.487c1.078.617 1.952 1.54 2.507 2.653a6.28 6.28 0 0 1 .61 3.6c-.103.82-.367 1.612-.776 2.33a6.29 6.29 0 0 1-1.61 1.853c-.654.506-1.4.878-2.198 1.094a6.27 6.27 0 0 1-2.45.168zm-.46-16.06a2 2 0 0 1-1.061-.474c-.3-.26-.514-.6-.618-.983a2 2 0 0 1 .031-1.161 2.01 2.01 0 0 1 .672-.948c.313-.242.7-.387 1.085-.415a2 2 0 0 1 1.931 1.101c.177.354.245.753.195 1.145a2 2 0 0 1-.759 1.329c-.42.325-.95.47-1.476.406z" class="C"/><path d="M126.764 227.686a1.7 1.7 0 0 1-.746-.833 1.74 1.74 0 0 1-.159-.986 1.83 1.83 0 0 1 .436-.971 1.85 1.85 0 0 1 .903-.566c.35-.096.72-.084 1.064.03a1.83 1.83 0 0 1 1.249 1.61c.026.362-.056.723-.236 1.038a1.82 1.82 0 0 1-.772.733 1.84 1.84 0 0 1-1.049.182 1.79 1.79 0 0 1-.69-.238zm.994 24.194c.22-.313.552-.53.928-.602.168-.044.343-.054.515-.03a1.57 1.57 0 0 1 .832.369 1.58 1.58 0 0 1 .486.77 1.57 1.57 0 0 1-.025.91c-.098.295-.28.552-.526.742a1.56 1.56 0 0 1-1.737.12 1.56 1.56 0 0 1-.623-.662 1.5 1.5 0 0 1-.15-.898 1.47 1.47 0 0 1 .299-.718zm3.972-10.216a3.59 3.59 0 0 1 .342-1.88 2.54 2.54 0 0 1 .252-.423c.47-.697 1.17-1.206 1.978-1.436a3.56 3.56 0 0 1 4.188 1.884c.363.757.448 1.62.238 2.432s-.7 1.527-1.386 2.014-1.52.716-2.357.647a3.57 3.57 0 0 1-2.22-1.025c-.596-.592-.963-1.377-1.037-2.214zm-5.36-25.526a7.25 7.25 0 0 0 7.246-7.247 7.25 7.25 0 0 0-7.246-7.247 7.25 7.25 0 0 0-7.247 7.247 7.25 7.25 0 0 0 7.247 7.247z" class="B"/><path d="M124.875 208.3c-.335-.043-.65-.185-.906-.407a1.7 1.7 0 0 1-.528-.84c-.088-.325-.08-.672.028-.993s.307-.603.575-.8.6-.33.928-.355.674.053.968.22.532.418.683.72.2.643.168.98c-.057.45-.292.86-.65 1.138a1.72 1.72 0 0 1-1.265.347zm3.305 5.796a2.55 2.55 0 0 1-1.355-.606c-.382-.33-.658-.77-.8-1.257a2.56 2.56 0 0 1 .901-2.696 2.56 2.56 0 0 1 1.387-.531 2.57 2.57 0 0 1 1.448.33c.44.25.795.626 1.02 1.078a2.57 2.57 0 0 1 .25 1.464 2.56 2.56 0 0 1-.316.947c-.167.292-.4.55-.654.755s-.57.357-.894.446-.662.112-.996.07zm.847-6.478a1.12 1.12 0 0 1-.591-.264c-.166-.145-.286-.335-.344-.548a1.11 1.11 0 0 1 1.627-1.26 1.11 1.11 0 0 1 .444.47c.098.197.136.42.108.638-.018.145-.065.285-.137.412a1.12 1.12 0 0 1-.285.328c-.115.1-.248.155-.4.194a1.13 1.13 0 0 1-.433.03z" class="C"/><path d="M369.374 284.784l-2.5-12.302a65.27 65.27 0 0 0-4.342-14.985 24.9 24.9 0 0 1-2.644-6.601c-.675-4.358 1.62-9.658-1.525-12.755-2.227-2.21-6.48-2.195-7.658-5.103-.532-1.293-.23-2.785-.606-4.136-.72-2.548-3.564-3.78-6.12-4.49-14.505-4.038-30.51-2.277-44.214-8.428-.15 3.584-.94 7.112-2.327 10.42a137.34 137.34 0 0 1-10.714 22.229c-4.136 6.92-8.985 13.58-15.423 18.43a35.64 35.64 0 0 1-6.938 4.104c.64 1.458 1.23 2.932 1.793 4.422.664 2.7 1.23 5.43 1.67 8.184.63 3.89.76 7.936 1.933 11.72 1.148 3.72 3.416 7.054 5.11 10.53a100.39 100.39 0 0 1 1.909 4.137c.713 2.917 1.287 5.89 1.835 8.814l.205 1.065 2.875 14.662 3.78 17.447 2.646 10.836c1.54 6.013 3.202 11.992 5.037 17.914 1.08 3.53 2.227 7.04 3.44 10.53a270.22 270.22 0 0 0 6.994 18.07c10.923-4.017 21.324-9.33 30.98-15.826-2.212-2.61-3.768-5.712-4.54-9.045-1.03-4.513-.622-9.45-2.8-13.532-1.146-2.145-2.94-3.915-3.973-6.126-2.13-4.57-.572-9.92.852-14.76 1.31-4.432 2.416-9.47.517-13.556l13.8 18.315c3.63 4.808 7.37 9.72 12.516 12.843s12.074 4.08 17.07.73c5.52-3.685 6.962-11.07 7.47-17.692 1.683-22.133-1.823-44.226-6.13-66.063z" fill="#ec615b"/><path d="M343.636 310.963c-.04 0-.073-.008-.115-.008-3.77-6.015-6.318-12.712-7.502-19.7-.232-1.728-.593-3.437-1.08-5.11 2.8.27 4.85 5.292 7.798 4.366a14.01 14.01 0 0 0 2.025-1.179c2.4-1.196 5.265.884 6.414 3.31s1.35 5.234 2.628 7.584a1.44 1.44 0 0 0 .459.574c.532.328 1.237-.065 1.597-.574a9.37 9.37 0 0 1 1.008-1.571c.45-.344 1.007-.518 1.573-.494s1.105.247 1.523.63a6.5 6.5 0 0 1 1.744 2.858c3.004 7.88 4.35 16.296 3.957 24.72l-.524.508c-4.956-5.242-10.067-10.443-16.317-14.014a12.83 12.83 0 0 0-5.188-1.887z" fill="#e25751"/><path d="M303.597 409.494l-.746.27a683.84 683.84 0 0 1-95.746 7.61c.894-4.202 1.738-8.4 2.43-12.646 26.508-4.63 53.102-8.703 79.784-12.222 2.43-.32 4.875-.64 7.283-1.08a269.33 269.33 0 0 0 6.995 18.069zm-3.823-193.507a30.21 30.21 0 0 1-2.328 10.419 137.19 137.19 0 0 1-10.713 22.227c-4.136 6.92-8.985 13.58-15.424 18.43a35.58 35.58 0 0 1-6.937 4.104 27.73 27.73 0 0 1-15.695 2.36c-5.1-.836-9.797-3.293-14.26-5.905a154.52 154.52 0 0 1-4.267-2.581 174.53 174.53 0 0 1-9.109-6.02c-4.505-3.18-9.05-6.782-11.238-11.844-2.04-4.743-1.23-11.092 2.86-14.056.538.308 1.1.556 1.704.737a19.35 19.35 0 0 0 10.787 2.654c10.166-.075 19.888-4.088 28.85-8.88 8.984-4.8 17.5-10.467 25.402-16.9a58.76 58.76 0 0 0 6.388-5.848c.164-.04.328-.1.5-.135a11.16 11.16 0 0 1 6.989.72c2.192.985 4.007 2.652 5.176 4.75.803 1.583 1.25 3.322 1.3 5.095.002.222.016.443.016.664z" class="D"/><path d="M293.163 380.898a293.95 293.95 0 0 0 3.441 10.53l-7.283 1.08a1952.83 1952.83 0 0 0-79.784 12.222l1.23-8.995.696-9.223a555.4 555.4 0 0 0 81.701-5.613z" class="E"/><path d="M288.126 362.983c1.54 6.013 3.202 11.992 5.037 17.915a555.38 555.38 0 0 1-81.698 5.61c.18-3.5.27-7 .344-10.516a593.55 593.55 0 0 1 63.546-11.271c4.26-.517 8.544-.992 12.77-1.738z" class="D"/><path d="M215.235 234.073c2.53.373 5.11.27 7.602-.304 11.524-2.104 22.9-5.676 32.928-11.754 9.968-6.044 18.553-14.703 23.355-25.327.1-.032.173-.065.254-.097 1.548-.614 3.276-1.385 4.8-.705a4.35 4.35 0 0 1 1.638 1.45c1.58 2.137 2.025 5.365.475 7.425-.164.04-.327.1-.492.135-1.98 2.105-4.117 4.06-6.388 5.848-7.914 6.422-16.422 12.075-25.41 16.883-8.96 4.79-18.684 8.804-28.85 8.88a19.35 19.35 0 0 1-10.788-2.654c.292.082.58.155.874.22z" fill="#263a75"/><path d="M288.126 362.984c-4.227.745-8.505 1.215-12.77 1.737-21.37 2.602-42.584 6.365-63.546 11.27.163-7.872.213-15.75.868-23.59l72.803-.254 2.646 10.837z" class="E"/><path d="M285.48 352.148l-72.803.254.197-2.26a141.79 141.79 0 0 1 .991-7.864 276.47 276.47 0 0 1 42.11-5.758c8.584-.5 17.235-.606 25.73-1.818l3.776 17.447z" class="D"/><path d="M278.837 320.038l2.875 14.662c-8.494 1.215-17.145 1.32-25.73 1.82a276.47 276.47 0 0 0-42.11 5.758 140.42 140.42 0 0 1 4.783-20.543l60.18-1.696z" class="E"/><path d="M211.522 224.514a9.91 9.91 0 0 1 3.899-6.504l.155-.246c1.924 1.24 3.927 2.35 5.997 3.326l4.43 1.843c3.144 1.2 6.46 1.883 9.822 2.025a18.81 18.81 0 0 0 11.131-3.137 35.5 35.5 0 0 0 9.952-4.12c2.517-1.515 4.74-3.47 6.56-5.775a14.5 14.5 0 0 0 2.876-5.676l-3.063-10.6.393-.107c2.03-2.47 4.904-4.106 8.067-4.6a7.02 7.02 0 0 1 4.285.526 3.71 3.71 0 0 1 1.575 1.471c.367.636.537 1.367.5 2.1-.082.574-.262 1.303.23 1.614a1 1 0 0 0 .395.095c.136.004.272-.02.4-.07-4.8 10.624-13.383 19.283-23.354 25.327-10.02 6.075-21.404 9.65-32.93 11.754-2.493.574-5.07.677-7.602.304a47.61 47.61 0 0 0-1.776-1.04l-.197-.32a12.44 12.44 0 0 1-1.843-7.364 9.36 9.36 0 0 1 .11-.842zm67.1 94.453l.205 1.065-60.18 1.695 3.27-9.305 54.674-3.12 2.033 9.665z" class="D"/><path d="M270.3 294.842c3.002 4.374 5.132 9.286 6.273 14.466l-54.674 3.12a46.82 46.82 0 0 1 .54-1.359c1.53-3.792 3.218-7.5 4.783-11.287l17.685-2.17 25.393-2.77zm32.545 114.92a191.28 191.28 0 0 1-31.944 8.577c-21.38 3.866-43.193 4.6-64.934 4.3l1.13-5.276a683.44 683.44 0 0 0 95.749-7.61z" class="E"/><path d="M244.917 297.554v.057l-17.685 2.17a85.35 85.35 0 0 0 4.121-11.811l.704-3.252c12.084-.095 24.13-1.35 35.976-3.744.065.204 2.22 13.654 2.277 13.867l-25.393 2.712z" class="D"/><path d="M264.372 271.163c1.398 3.2 2.62 6.477 3.66 9.813-11.845 2.395-23.892 3.648-35.976 3.743 1.215-6.66.975-13.67-1.91-19.684a145.3 145.3 0 0 0 4.269 2.581c4.463 2.612 9.15 5.07 14.26 5.905a27.73 27.73 0 0 0 15.695-2.358z" class="E"/><path d="M260.342 235.163c2.236-1.326 4.212-3.047 5.832-5.08-1.504 6.52-3.992 12.774-7.38 18.545a17.34 17.34 0 0 1-6.135 6.798c-2.795 1.378-6 1.713-9 .945-2.987-.777-5.852-1.965-8.512-3.53-4.182-2.075-8.006-4.805-11.327-8.085l.016-.082c6.296 1.27 12.81.938 18.945-.967 6.248-1.962 12.17-4.842 17.57-8.545z" fill="#263a75"/><path d="M232.057 284.72l-.704 3.252c-1.083 4.033-2.46 7.98-4.12 11.81l-4.783 11.287-.54 1.36a132.47 132.47 0 0 0-3.269 9.305 140.42 140.42 0 0 0-4.783 20.543 138.05 138.05 0 0 0-.991 7.863l-.197 2.26c-.654 7.84-.704 15.72-.868 23.59l-.344 10.517c-.155 3.08-.368 6.15-.697 9.223a156.48 156.48 0 0 1-1.228 8.995c-.695 4.234-1.54 8.444-2.43 12.646l-1.13 5.276-6.798-.116c-4.84-.105-9.936-.32-14.163-2.596-3.293-17.717 4.03-35.885 4.497-54.045.233-1.674-.2-3.373-1.18-4.743-.737-.794-1.9-1.31-2.17-2.366-.318-1.23.803-2.36 1.01-3.62.384-2.36-2.344-3.98-3.253-6.2-1.76-4.3 3.702-8.798 4.203-13.05l.212.016c1.215-6.144-.703-12.433-.925-18.692a47.71 47.71 0 0 1 .794-9.879c-13.162 2.646-29.357 6.885-43.69 11.017h-.008l-8.085 2.376a25.43 25.43 0 0 1-1.662 1.015c-5 1.9-10.22 3.1-15.54 3.564-5.562.27-11.418-1.08-15.58-4.776-5.366-4.79-6.987-12.67-6.242-19.83s3.497-13.925 5.57-20.814c2.43-8.085 4.03-16.61 8.552-23.738a40.13 40.13 0 0 0 4.005-6.692c2.637-6.856-1.155-14.81 1.023-21.82 2.08-6.683 8.847-10.542 14.933-14.007a38.81 38.81 0 0 0 8.969-6.372l.27-.377 1.605 1.187c6.894 5.146 13.472 10.702 19.7 16.637a202.57 202.57 0 0 1 4.725 4.636l-.32.312a10.96 10.96 0 0 1 1.497 5.444c.014 1.915-.474 3.8-1.416 5.466-1.645 2.835-4.505 4.816-6.765 7.167 5.172-3.396 11.043-5.582 17.176-6.397.63-.082 1.262-.155 1.9-.205 3.047-.262 6.782-.6 8.02-3.383.336-.762.417-1.62.705-2.39 1.04-2.892 4.61-4.195 7.634-3.687s5.627 2.36 8.11 4.16c-.36-2.407-.058-5.766 2.36-6.075.79-.036 1.578.142 2.277.517a61.39 61.39 0 0 1 5.062 2.465.26.26 0 0 0 .081.074 3.19 3.19 0 0 0-.405.278c-4.087 2.97-4.897 9.315-2.86 14.056 2.187 5.063 6.734 8.666 11.24 11.845 2.97 2.096 6.006 4.103 9.108 6.02 2.897 6.013 3.135 13.033 1.922 19.7z" fill="#ec615b"/><path d="M144.515 318.375h-.008l-8.085 2.376c6.1-4.224 10.78-10.217 13.384-17.174a17.32 17.32 0 0 1 1.842-3.94c.392-.614.92-1.13 1.544-1.505s1.325-.604 2.05-.665a5.55 5.55 0 0 1 2.275.7 5.56 5.56 0 0 1 1.775 1.585c.477-2.557 1.374-5.018 2.654-7.282.277-.633.678-1.204 1.18-1.678a5.12 5.12 0 0 1 1.744-1.082 3.83 3.83 0 0 1 1.989.205 3.85 3.85 0 0 1 1.616 1.178 11.03 11.03 0 0 1 1.842 3.597c5.805-10.2 11.8-20.64 20.978-27.957a1.99 1.99 0 0 1 .99-.508 7.8 7.8 0 0 1 1.671.598 176.74 176.74 0 0 1-3.58 29.907c-.737 3.53-1.58 7.068-2.18 10.622-13.157 2.652-29.35 6.9-43.684 11.023zm32.41-77.02a37.76 37.76 0 0 0-9.272 7.896 25.32 25.32 0 0 0-5.743 12.483c-.405 2.868-.212 5.805-.802 8.64-1.008 4.875-4.202 9.02-7.765 12.492s-7.6 6.463-10.952 10.14c-3.3 3.628-5.97 8.133-6.16 13.024-1.278-2.416-.945-5.44-.2-8.1 4.017-14.277 17.97-24.73 19.8-39.457.093-2.268.468-4.516 1.115-6.692a12.35 12.35 0 0 1 2.777-4.029 41.16 41.16 0 0 1 17.179-6.398z" fill="#e25751"/><path d="M143.726 207.743l-4.445 4.9c-.347.398.28.923.628.526l4.445-4.9c.363-.382-.266-.908-.628-.527zm2.524 2.037a.42.42 0 0 0-.299-.092c-.108.01-.208.06-.28.142a19.81 19.81 0 0 1-2.295 2.565.4.4 0 0 0-.077.14.39.39 0 0 0-.018.159c.005.054.02.106.045.154s.06.1.102.124a.43.43 0 0 0 .298.09c.108-.008.206-.06.278-.14a19.94 19.94 0 0 0 2.295-2.565.42.42 0 0 0 .092-.299.42.42 0 0 0-.142-.278zm2.945 2.06l-5.457 5.55c-.37.376.26.9.627.526l5.457-5.55c.37-.376-.26-.9-.627-.526zm4.608 2.545a.41.41 0 0 0-.3-.093c-.1.01-.207.062-.277.144a24.32 24.32 0 0 1-2.935 3.282.41.41 0 0 0-.093.299c.01.108.06.208.144.28s.2.1.298.1.207-.06.278-.14c1.076-1.003 2.058-2.103 2.934-3.284.067-.084.1-.2.1-.298a.42.42 0 0 0-.14-.277zm2.05 3.28l-5.35 5.963c-.357.388.27.914.627.526l5.352-5.963c.35-.397-.277-.922-.628-.526zm3.572 3.176a.42.42 0 0 0-.299-.09c-.107.01-.207.06-.278.14l-3.4 3.443a.41.41 0 0 0-.093.3.41.41 0 0 0 .143.278c.084.068.2.1.3.1a.38.38 0 0 0 .278-.14l3.392-3.438a.41.41 0 0 0 .095-.302c-.01-.1-.062-.2-.146-.28zm1.38 2.904l-3.946 4.725c-.358.4.27.914.627.527l3.946-4.725c.318-.42-.314-.948-.627-.527zm4.465 2.266c-1.185 1.56-2.5 3.023-3.904 4.378a.41.41 0 0 0-.093.3.4.4 0 0 0 .144.278.46.46 0 0 0 .298.1.42.42 0 0 0 .279-.14 37.63 37.63 0 0 0 3.904-4.378c.317-.42-.308-.948-.628-.527zM329.58 335.924l-3.305-4.78c-.284-.445-.952.03-.675.474l3.306 4.78c.32.42.992-.05.674-.472zm2.936-1.974l-2.62-4.132c-.283-.445-.945.028-.67.473l2.622 4.133c.282.44.95-.034.668-.474zm4.446-1.773l-3.815-6.068c-.27-.453-.937.022-.675.474l3.816 6.075c.3.432.967-.04.674-.48zm4.53-2.2c-2.198-1.812-3.375-4.5-5.2-6.626-.342-.395-1.014.074-.668.474 1.9 2.18 3.095 4.918 5.352 6.78.084.07.2.104.3.095a.41.41 0 0 0 .373-.444c-.01-.108-.062-.208-.145-.278zm-.178-6.186l-2.934-3.438c-.065-.086-.16-.144-.266-.162a.42.42 0 0 0-.305.065.41.41 0 0 0-.097.571l2.933 3.438c.065.086.16.144.266.163a.42.42 0 0 0 .305-.066.41.41 0 0 0 .098-.571zm4.802-.472l-4.38-5.007c-.384-.44-.824-1.17-1.47-1.215a.43.43 0 0 0-.303.07c-.09.06-.15.153-.173.258s.004.218.066.307a.41.41 0 0 0 .263.171c.27.02.428.288.6.473l.675.773 1.35 1.55 2.708 3.095c.354.393 1.03-.075.675-.474zm1.765-4.443l-2.806-2.856-1.442-1.314a5.29 5.29 0 0 0-1.562-1.154c-.493-.178-.847.562-.35.74a4.94 4.94 0 0 1 1.426 1.08l1.4 1.28 2.664 2.7a.42.42 0 0 0 .266.161c.106.018.215-.004.305-.063s.148-.16.166-.266a.42.42 0 0 0-.068-.307zm-.156-4.147l-4.368-3.492c-.424-.3-.953.316-.527.628l4.37 3.492c.398.347.923-.28.526-.628zM205 244.73a9.65 9.65 0 0 0-3.094-5.17c-.405-.347-.925.28-.526.628a8.84 8.84 0 0 1 2.78 4.517c.1.36.558 2.363-.228 2.17-.466-.184-.902-.437-1.292-.752l-1.243-.9-1.1-.928a2.13 2.13 0 0 0-.979-.651c-.85-.154-1 .73-.845 1.35l1.836 6.345a40.78 40.78 0 0 1 1.62 6.534c-1.1-.52-2.052-1.337-2.727-2.36-.938-1.267-1.747-2.636-2.6-3.962l-5.783-9.003c-.285-.444-.955.03-.675.474l6.112 9.512c1.526 2.375 3.073 5.6 6.065 6.322a.4.4 0 0 0 .348-.102.42.42 0 0 0 .106-.153.41.41 0 0 0 .027-.184c-.264-2.212-.76-4.4-1.476-6.5l-1.92-6.64c-.03-.108-.27-.652-.203-.746.096-.135.345.178.43.257l1.234 1.05a17.38 17.38 0 0 0 2.484 1.65 1.11 1.11 0 0 0 .46.198c.167.03.338.02.5-.025a1.11 1.11 0 0 0 .439-.242 1.1 1.1 0 0 0 .287-.41 3.83 3.83 0 0 0-.039-2.29zm122.724-11.322a2.32 2.32 0 0 1-.616.682 2.35 2.35 0 0 1-.833.391 11.44 11.44 0 0 0-1.813.244 4.75 4.75 0 0 0-2.324 2.025c-1.1 1.704-1.423 4.02-2.9 5.458a52.19 52.19 0 0 1-1.069-8.154.41.41 0 0 0-.092-.216c-.05-.062-.118-.108-.195-.132s-.158-.025-.235-.004a.42.42 0 0 0-.199.125c-1.843 2.044-3.173 4.496-3.882 7.155a69.42 69.42 0 0 1-3.375 8.722l-1.087 2.094c-.197.36-.365.866-.86.663a2.2 2.2 0 0 1-.784-.81 8.33 8.33 0 0 1-1.335-3.981 33.49 33.49 0 0 1 .594-9.349c.324-1.798.76-3.576 1.3-5.32l.93-2.665.532-1.315.262-.607.086-.193a.4.4 0 0 0 .21.035.59.59 0 0 0 .32-.16c.087-.086.148-.194.17-.314s.007-.245-.043-.356a.59.59 0 0 0-.24-.265c-.675-.414-1.08.53-1.28.988-2.297 5.248-3.565 10.888-3.737 16.613a16.78 16.78 0 0 0 .436 4.913c.207.773.528 1.5.952 2.188a2.99 2.99 0 0 0 1.62 1.472c.8.174 1.225-.493 1.56-1.103a51.07 51.07 0 0 0 1.297-2.517 50.96 50.96 0 0 0 2.195-5.316c1.1-3.2 1.923-6.686 4.13-9.315a53.18 53.18 0 0 0 1.173 8.03.42.42 0 0 0 .264.247c.06.018.123.023.185.013s.12-.034.172-.07c1.974-1.396 2.295-3.877 3.437-5.844.244-.512.598-.963 1.037-1.322a3.83 3.83 0 0 1 1.504-.751 6.3 6.3 0 0 0 1.872-.304c.52-.265.963-.66 1.285-1.146.305-.432-.32-.964-.624-.53zm-100.7 33.062a27.4 27.4 0 0 0-1.425-3.275c-.238-.464-1-.185-.768.284 4.53 8.835 3.63 19.27.752 28.47-3.15 10.062-8.432 19.296-12.002 29.205a126.82 126.82 0 0 0-6.91 30.655c-1.08 11.043-.444 22.163-1.334 33.218-.868 10.776-2.802 21.44-5.774 31.834l-1.168 3.897c-.158.502.65.646.8.15a164.13 164.13 0 0 0 6.598-31.98c.567-5.463.8-10.943.906-16.433.095-5.67.1-11.35.48-17a125.92 125.92 0 0 1 6.265-31.475c3.375-10.045 8.573-19.337 12.08-29.325 3.137-8.95 4.767-19.05 1.5-28.213z" fill="#5776c4"/><path d="M276.13 145.92a14.86 14.86 0 0 0-13.418-9.781c.375-1.576.592-3.185.65-4.804a22.54 22.54 0 0 0 .572-4.735c.042-3.325-.56-7.09-2.762-9.72-2.372-2.834-5.994-3.142-9.443-3.31-3.78-.185-7.695-.66-10.935-2.777-2.998-1.96-5.115-4.965-8.013-7.054a18.39 18.39 0 0 0-10.042-3.211c-3.708-.156-7.407.468-10.86 1.832-3.4 1.397-6.42 3.543-8.862 6.28-2.545 2.762-4.7 5.98-7.132 8.926l-1.17.965c-5.61 4.374-12.435 6.798-18.89 9.77-5.042 2.103-9.635 5.152-13.53 8.98-2.874 2.1-5.254 4.785-6.974 7.895a24.31 24.31 0 0 0-2.977 10.105c-.308 4.348.84 8.675 3.26 12.3 2.62 3.705 6.83 5.466 10.446 7.983 1.582 1.08 3.02 2.36 4.277 3.805-.153 1.608-.447 3.2-.877 4.755-1.02 3.1-1.68 6.308-1.966 9.56-.1 1.445.07 2.896.528 4.27s1.187 2.643 2.142 3.732a23.36 23.36 0 0 0 3.703 2.866c1.288.848 2.442 1.884 3.424 3.072.02.025.035.052.054.076.475 3.062-1.094 6.624-1.233 9.556-.075 1.872.424 3.72 1.43 5.3s2.47 2.813 4.198 3.536c4.254 1.75 8.522-.698 12.825-.718 4.15-.02 7.667 2.68 11.67 3.375 2.082.422 4.246.018 6.036-1.124a7.93 7.93 0 0 0 2.363-2.478 19.8 19.8 0 0 0 9.236-3.105c1.4-.96 2.73-2.044 3.95-3.24 2.54-2.375 5.08-4.915 8.584-5.717 2.2-.404 4.435-.563 6.668-.475 1.666.043 3.332-.084 4.972-.376 3.46-.64 6.655-2.3 9.182-4.74a17.85 17.85 0 0 0 5.021-9.03 17.67 17.67 0 0 0 .091-5.57c-.27-2.04-.73-4.05-.86-6.094a19.2 19.2 0 0 1 2.948-10.566c.975-1.73 2.064-3.392 3.13-5.07l3.472-4.62c4.277-5.995 7.495-13.66 5.113-20.623zm-106.948 31.06c-1.634-1.414-3.397-2.673-5.265-3.76a36.82 36.82 0 0 1-5.509-3.735 16.87 16.87 0 0 1-5.221-11.5c-.297-4.487.765-8.96 3.047-12.833.968-1.638 2.128-3.155 3.456-4.517-.135.202-.262.405-.385.607a17.48 17.48 0 0 0-2.202 6.334 14.54 14.54 0 0 0 .25 9.221c.316.807.724 1.574 1.215 2.288.567 1.143 1.3 2.2 2.15 3.143 1.163 1.32 2.507 2.5 3.78 3.72a20.18 20.18 0 0 1 5.274 7.888 13.09 13.09 0 0 1 .609 4.328c-.384-.405-.784-.8-1.2-1.183zm42.66 49.937a7.27 7.27 0 0 1-5.323 1.053c-3.78-.606-7.055-2.997-10.9-3.36-4.265-.405-8.46 2.177-12.7 1.035-1.75-.505-3.284-1.568-4.373-3.027s-1.67-3.234-1.657-5.054c.047-2.565 1.06-4.984 1.26-7.527.024-.303.033-.61.035-.916a10.57 10.57 0 0 1 .308 2.279 24.75 24.75 0 0 0 .279 6.38c.35 1.113.932 2.14 1.707 3.012a8.3 8.3 0 0 0 2.79 2.051 11.48 11.48 0 0 0 6.831.745c3.105-.556 6.16-2.16 9.247-1.523 2.286.467 4.145 2.088 6.275 3.03a5.91 5.91 0 0 0 2.58.593c.894 0 1.777-.203 2.58-.593a20.13 20.13 0 0 0 2.81.109c-.482.667-1.075 1.247-1.753 1.713h-.007zm48.89-104.596c-4.49-5.472-12.902-4.825-19.52-7.332-5.244-2-9.47-6.075-14.646-8.235a22.24 22.24 0 0 0-9.969-1.581c-3.4.244-6.7 1.267-9.64 2.99a44.5 44.5 0 0 0-7.56 6.194l1.62-2.097c2.135-2.927 4.77-5.455 7.784-7.466 3.167-1.888 6.72-3.033 10.395-3.35a20.69 20.69 0 0 1 10.575 1.494c3.25 1.485 5.487 4.21 8.072 6.57 1.282 1.212 2.744 2.22 4.333 2.984 1.653.738 3.4 1.244 5.19 1.504 1.786.28 3.584.334 5.384.442a14.81 14.81 0 0 1 5.13.98c3.215 1.417 4.6 4.86 5.03 8.14a21.31 21.31 0 0 1 .147 3.976c-.325-1.904-1.123-3.696-2.32-5.212h-.007z" fill="#2b2b2b"/><path d="M266.348 206.243a14.51 14.51 0 0 1-2.876 5.677c-1.822 2.303-4.044 4.26-6.56 5.775l-.032-.058a205.45 205.45 0 0 0 2.875-22.23 73.88 73.88 0 0 0-.827-16.956l2.187 8.97 2.17 8.235 3.063 10.588z" class="G"/><path d="M258.927 178.433v.017a73.87 73.87 0 0 1 .827 16.955 205.7 205.7 0 0 1-2.875 22.23l.032.06a35.47 35.47 0 0 1-9.952 4.12 15.19 15.19 0 0 0 1.548-1.245 23.77 23.77 0 0 0 4.98-7.274c2.888-5.994 4.758-12.427 5.535-19.034.7-5.86.56-11.793-.44-17.61.132.6.24 1.19.346 1.783z" class="F"/><path d="M314.454 304.868c-3.347-.578-6.61-1.563-9.72-2.932a4.78 4.78 0 0 0-1.148-.405c-.92-.035-1.83.19-2.63.648-3.277 1.423-6.8 2.228-10.36 2.374a13.97 13.97 0 0 1-9.493-2.505c-.24-.152-.442-.355-.593-.595s-.25-.51-.284-.8c-.008-.802.82-1.327 1.556-1.662 3.94-1.794 8.257-2.884 11.804-5.374a8.59 8.59 0 0 1 2.794-1.573 6.64 6.64 0 0 1 2.17-.041c3.128.27 6.298.55 9.403 1.106-1.23-.895-2.358-1.925-3.36-3.07-.28-.396-.666-.706-1.114-.894a2.5 2.5 0 0 0-1.065.016 35.17 35.17 0 0 1-11.974.135 20.8 20.8 0 0 1-4.94-1.571 16.36 16.36 0 0 1-5.479-3.999c-.22-.245-.424-.502-.614-.77a4.67 4.67 0 0 1-.747-1.549 2.59 2.59 0 0 1-.024-1.34c.11-.44.333-.846.648-1.173a3.81 3.81 0 0 1 3.039-.566c2.735.32 8.158 1.4 8.158 1.4 1.43.205 2.874.317 4.32.334-1.14-.572-7.92-3.022-8.64-4.013a3 3 0 0 1-.516-1.311 2.23 2.23 0 0 1 .04-1.106c.106-.36.3-.686.566-.95.763-.528 1.692-.76 2.614-.655l17.872-.098 2.662-.016a18.95 18.95 0 0 1 5.054.426c2.5.914 4.85 2.24 6.922 3.923 2.4 1.633 4.952 3.034 7.618 4.185 1.266.457 2.46 1.093 3.546 1.9 1.14 1.008 1.97 2.32 2.392 3.78.487 1.674.848 3.383 1.08 5.11 1.184 6.998 3.733 13.695 7.502 19.7l.074.123c-3.36 9.532-9.952 17.588-18.63 22.77a10.96 10.96 0 0 1-3.883-2.105c-2.5-2.026-4.51-4.595-5.872-7.51a21.25 21.25 0 0 1-2-9.322c-4.37-.307-8.705-1.012-12.95-2.105l-.1-.1c-2.54 2.7-6.504 4.32-10.018 3.17-.328-.078-.62-.27-.82-.54-.302-.507.066-1.146.427-1.62 1.648-2.164 3.452-4.203 5.4-6.102a9.67 9.67 0 0 1 2.7-2.025 11.89 11.89 0 0 1 5.84-.36c3.59.296 7.2.17 10.76-.374z" class="G"/><path d="M330.584 258.588c.352.032.777.147.892.49-.235.533-.574 1.013-.998 1.412s-.922.7-1.467.914l-7.217 3.67-.057-.123a7.52 7.52 0 0 0-.582-2.466c-.076-.263-.212-.504-.397-.706a1.77 1.77 0 0 0-.668-.457l-.008-.016 2.408-.958a17.88 17.88 0 0 1 8.094-1.762z" fill="#ced7e0"/><path d="M321.735 264.953l.057.123a276.86 276.86 0 0 1-15.055 6.871l-11.378.066a458.37 458.37 0 0 1 24.721-10.705l.008.016a1.78 1.78 0 0 1 1.065 1.162 7.53 7.53 0 0 1 .582 2.467zm-53.513 16.644c5.218-2.1 10.558-3.965 15.76-6.037a11.16 11.16 0 0 0 1.663-.8 3.02 3.02 0 0 0 .516 1.311c.712 1 7.495 3.44 8.64 4.013-1.446-.017-2.9-.13-4.32-.335 0 0-5.423-1.1-8.158-1.4a3.84 3.84 0 0 0-1.58-.04 3.8 3.8 0 0 0-1.46.605c-.315.327-.54.732-.648 1.173a2.6 2.6 0 0 0 .024 1.34 4.69 4.69 0 0 0 .747 1.549c-7.995 3.973-17.07 5.684-24.656 10.362l-3.53-2.843c-.056-.046-.126-.07-.198-.073a84.99 84.99 0 0 1 17.199-8.807z" fill="#fff"/><path d="M254.923 293.466l-.173-.135c7.586-4.678 16.66-6.4 24.656-10.363.19.268.396.525.614.77a16.35 16.35 0 0 0 5.48 3.998l-15.186 7.11-5.805 2.606c-2.884 1.277-5.783 2.54-8.8 3.53a152.72 152.72 0 0 1-.796-7.515z" fill="#e8e8e8"/><path d="M255.716 300.977l-.687.22a19.69 19.69 0 0 1-2.97.721l-.033-.247a3.49 3.49 0 0 1-1.494-1.976 3.5 3.5 0 0 1 .191-2.471 8.52 8.52 0 0 1 3.531-3.588l.5-.3.173.134.8 7.516z" fill="#ce4670"/><path d="M244.92 297.6v-.056c-.024-2.032 1.597-3.67 3.178-4.948l2.924-2.195c.072.001.14.027.197.073l3.53 2.843-.5.3a8.51 8.51 0 0 0-3.53 3.589 3.49 3.49 0 0 0 1.302 4.446l.033.247c-1.06.17-2.144.142-3.194-.082-1.022-.19-1.956-.705-2.665-1.466a4.87 4.87 0 0 1-1.276-2.761z" fill="#d85678"/><path d="M320.22 284.508a21.36 21.36 0 0 1-6.419-3.467 12.83 12.83 0 0 0-6.65-2.508c-3.125.06-6.242.34-9.328.838a27.42 27.42 0 0 1-9.096-.211c-2.977-.7-6.168-2.4-9.117-.65-.453.27.022.935.474.668 2.608-1.54 5.692.105 8.305.744a26.36 26.36 0 0 0 8.729.343l8.936-.912a9.93 9.93 0 0 1 4.093.608 17.39 17.39 0 0 1 3.126 1.708 22.5 22.5 0 0 0 6.799 3.644c.514.125.66-.68.148-.805zm-2.05 20.148c-4.3.26-8.628.408-12.95.446-2.138.018-4.284-.07-6.42-.023a3.58 3.58 0 0 0-2.407.867c-.73.643-1.37 1.4-2.038 2.106l-4.455 4.7a3.17 3.17 0 0 0-1.186 2.098c.035.82.772 1.3 1.462 1.583a8.2 8.2 0 0 0 5.13.023c1.67-.468 3.2-1.338 4.455-2.535.303-.286.46-.43.895-.35.3.05.575.135.86.2l1.74.35a59.84 59.84 0 0 0 3.51.551c2.318.296 4.652.465 7 .506.525.01.45-.8-.072-.817a62.47 62.47 0 0 1-11.725-1.335c-.757-.16-1.692-.567-2.382-.035-.662.5-1.208 1.1-1.924 1.56a9.72 9.72 0 0 1-4.714 1.475 5.5 5.5 0 0 1-2.642-.428c-.375-.183-.82-.435-.744-.918a2.35 2.35 0 0 1 .701-1.096l4.185-4.408 2.004-2.114c.286-.35.643-.635 1.048-.834a3.12 3.12 0 0 1 1.3-.319c1.963-.064 3.94.035 5.906.023a247.29 247.29 0 0 0 13.557-.45.41.41 0 0 0-.083-.816zm-1.898-9.316a103.61 103.61 0 0 0-17.088-3.349c-1.24-.254-2.53-.1-3.683.414l-3.387 2.18a49.31 49.31 0 0 1-7.383 3.2c-1.356.436-2.635 1.082-3.792 1.914-.22.146-.404.344-.534.576a1.67 1.67 0 0 0-.21.756 1.09 1.09 0 0 0 .26.681c.162.2.385.32.63.364a.41.41 0 0 0 .308-.066c.1-.062.152-.157.172-.265a.41.41 0 0 0-.331-.479c-.346-.057-.208-.47-.077-.652.185-.214.406-.395.653-.533.52-.337 1.065-.634 1.63-.887 1.035-.474 2.114-.842 3.184-1.226a36.73 36.73 0 0 0 6.523-3.047l1.485-.945c.493-.377 1.012-.718 1.553-1.022a7.43 7.43 0 0 1 3.735-.083 71.55 71.55 0 0 1 7.715 1.232l8.485 2.036c.517.132.66-.674.15-.798z" class="F"/><path d="M257.73 172.764l.065.106.787 3.792c1.002 5.818 1.15 11.75.44 17.61-.777 6.608-2.648 13.04-5.535 19.035a23.78 23.78 0 0 1-4.98 7.273c-.488.45-1.005.864-1.548 1.245-3.29 2.19-7.184 3.287-11.132 3.137-3.362-.14-6.678-.825-9.82-2.025-1.515-.54-2.99-1.163-4.43-1.842-2.07-.976-4.073-2.087-5.997-3.327-10.386-6.634-18.675-16.684-25.08-27.365l-.36-.173c1.13-2.4 2.136-4.86 3.014-7.364l2.924-7.872c4.06-.125 8.066-.973 11.83-2.505a21.28 21.28 0 0 1-5.186-5.955l.172-.1c1.33-1.508 2.52-3.135 3.556-4.86a15.02 15.02 0 0 1 1.089-.405c.232-.045.453-.135.65-.266s.366-.3.497-.495a1.61 1.61 0 0 0 .026-.771c-.054-.256-.17-.494-.336-.695l.135-.082c.01.028.032.052.06.066s.058.02.088.016c.107-.024.163-.135.205-.238.775-1.577 1.234-3.292 1.35-5.046.003-.222-.01-.443-.042-.663 1.928-2.714 3.246-5.814 3.863-9.085a23.07 23.07 0 0 0-.291-9.868l.135-.042c3.18-.96 6.57-.962 9.75-.001a16.85 16.85 0 0 1 8.116 5.401c1.254 1.572 2.204 3.357 3.366 4.994a23.6 23.6 0 0 0 7.34 6.628 23.59 23.59 0 0 0 9.411 3.038 13.9 13.9 0 0 1 .27-4.488c.208-1.007.667-1.945 1.334-2.727a6.11 6.11 0 0 1 2.482-1.746c1.097-.248 2.242-.173 3.296.216s1.973 1.078 2.644 1.98a11.89 11.89 0 0 1 2.212 6.249c.597 5.677-.673 11.394-3.617 16.285-.63 1.2-1.58 2.225-2.747 2.934z" class="G"/><path d="M259.338 190.054l-1.038-17.24a.38.38 0 0 0-.416-.348.38.38 0 0 0-.348.415l1.007 16.724a11.82 11.82 0 0 1-.231 4.136c-3.888-4.367-8.593-7.932-13.848-10.495v-.054c1.24-9.855 3.156-19.614 5.736-29.206.558-2.8 1.547-5.494 2.932-7.99.27-.405-.32-.908-.588-.493a24.06 24.06 0 0 0-2.682 6.818 222.4 222.4 0 0 0-2.015 7.83c-1.253 5.278-2.306 10.597-3.16 15.957-.374 2.345-.695 4.698-.99 7.054a78.13 78.13 0 0 0-20.235 1.755 26.74 26.74 0 0 0-6.075 1.941 11.77 11.77 0 0 0-4.834 4.05c-.67 1.113-1.205 2.3-1.597 3.538a65.55 65.55 0 0 0-2.916 11.975c-2.44.26-4.906.187-7.328-.218a.38.38 0 0 0-.436.311c-.018.1.004.2.06.284s.143.14.24.16a27.73 27.73 0 0 0 7.956.183 70.06 70.06 0 0 0 13.558 13.815 67.32 67.32 0 0 0 16.241-1.427c5.434-1.383 10.684-4.253 13.808-8.897a29.53 29.53 0 0 0 2.478-4.734 113.27 113.27 0 0 0 4.307-11.475l-.033-.013a10.35 10.35 0 0 0 .446-4.358z" fill="#e3fffe"/><path d="M231.838 186.466a22.98 22.98 0 0 1 10.558-.135c-5.218.432-10.305 1.86-14.984 4.2a38.31 38.31 0 0 0-9.273 6.102c-2.487 2.237-4.5 4.957-5.9 7.995a14.84 14.84 0 0 1 2.7-7.233c1.764-2.414 3.948-4.492 6.446-6.135 3.16-2.224 6.698-3.852 10.442-4.804zm9.52 4.194l1.236-1.197a40.26 40.26 0 0 1-5.97 10.993c-1.1 1.5-2.403 2.854-3.85 4.03a20.4 20.4 0 0 1-9.461 3.744 60.45 60.45 0 0 1-10.181.384c1.957-.974 4.02-1.737 6.037-2.613 8.215-3.815 15.72-9.003 22.2-15.34zm5.002 5.84a22.47 22.47 0 0 1-5.873 15.677 15.24 15.24 0 0 1-4.93 3.695 16.13 16.13 0 0 1-9.281.786c-2.357-.306-4.585-1.255-6.438-2.743 4.563-.395 9.18-.927 13.3-2.876 3.367-1.668 6.313-4.076 8.617-7.044 1.812-2.315 3.354-4.83 4.595-7.495z" fill="#acddda"/><path d="M261.718 160.402a9.27 9.27 0 0 1-.074 2.777 3.45 3.45 0 0 1-.945 2.025 2.77 2.77 0 0 1-3.399-.042c-.948-.793-1.626-1.86-1.94-3.055a14.95 14.95 0 0 1 .156-9.719c.26-.95.852-1.777 1.67-2.327.37-.206.798-.278 1.214-.2a1.81 1.81 0 0 1 1.063.619 1.78 1.78 0 0 0-.974.54c-.317.384-.56.822-.72 1.293-.925 2.352-1.36 5.12-.135 7.332.19.402.502.733.892.945.8.343 1.68-.19 2.43-.632a.56.56 0 0 1 .405-.123c.245.045.332.33.36.568z" class="F"/><path d="M241.835 156.5c-.16-.467-.88-.2-.72.27a4.66 4.66 0 0 1 .22 2.2 2.99 2.99 0 0 1-.904 1.948 1.45 1.45 0 0 1-.886.227 1.44 1.44 0 0 1-.846-.348 2.51 2.51 0 0 1-.87-1.7c-.197-1.444.293-2.882.213-4.333a7.94 7.94 0 0 0-1.177-3.718c-.3-.6-.78-1.123-1.36-1.486a3.79 3.79 0 0 0-1.929-.581c-.097.014-.185.065-.246.142s-.1.174-.082.272a.38.38 0 0 0 .127.254c.073.064.17.1.268.097 1.566-.094 2.624 1.543 3.133 2.816a7.25 7.25 0 0 1 .502 2.27 15.49 15.49 0 0 1-.193 2.526 4.55 4.55 0 0 0 .016 2.034c.158.67.466 1.292.9 1.825a2.22 2.22 0 0 0 .73.516 2.21 2.21 0 0 0 .873.187 2.22 2.22 0 0 0 1.613-.676 4.98 4.98 0 0 0 .914-2.287c.1-.827.01-1.668-.292-2.446zm3.39 6.7a.41.41 0 0 0-.416-.35.39.39 0 0 0-.26.136c-.065.078-.097.18-.088.28.13.45.186.918.167 1.385a1.37 1.37 0 0 1-.163.559c-.096.16-.23.294-.392.4-.052.034 0 0-.052.027l-.127.047h-.01c-.02.005-.04.008-.06.01-.065.01-.132.01-.197-.005a.49.49 0 0 1-.178-.083 2.01 2.01 0 0 1-.597-.96 3.66 3.66 0 0 1-.22-1.44.4.4 0 0 0-.308-.447.37.37 0 0 0-.287.062.39.39 0 0 0-.16.246 4.65 4.65 0 0 0 .213 1.726 2.9 2.9 0 0 0 .835 1.377c.2.16.44.26.695.285a1.35 1.35 0 0 0 .738-.136 1.87 1.87 0 0 0 .598-.48 1.88 1.88 0 0 0 .356-.68c.133-.647.103-1.317-.088-1.95z" fill="#fff"/><path d="M228.822 166.9c-.15-.12-.342-.176-.533-.16a.75.75 0 0 0-.496.252c-2.013 1.904-3.68 4.142-4.93 6.615l-.848 1.883c-.247.624-.516 1.414.174 1.87.57.375 1.32-.025 1.9-.197l2.174-.6c1.66-.415 3.34-.738 5.035-.97.93-.135.82-1.586-.113-1.457l-4.443.8-2.098.532-1.04.3-.135.043.17-.405.56-1.197c.393-.78.832-1.538 1.315-2.267a23.58 23.58 0 0 1 3.413-4.028c.122-.15.18-.34.162-.533a.74.74 0 0 0-.259-.493zm-.744-5.824c-1.344-.822-2.947-1.1-4.493-.8-1.652.332-3.2 1.03-4.553 2.047-1.12.8-2.922 2.125-2.942 3.688-.027.1-.047.224-.06.338-.048.228-.047.464.003.692a1.66 1.66 0 0 0 .286.631 1.65 1.65 0 0 0 .518.459 1.64 1.64 0 0 0 .661.207 3.67 3.67 0 0 0 2.16-.845 16.11 16.11 0 0 1 2.233-1.456 50.15 50.15 0 0 1 4.838-1.508c.73-.16 1.4-.53 1.92-1.067a1.7 1.7 0 0 0 .258-.63 1.67 1.67 0 0 0-.312-1.299c-.14-.183-.316-.335-.517-.446zM196.45 188.34a.74.74 0 0 1 .122-.543.75.75 0 0 1 .463-.31 23.96 23.96 0 0 1 8.181-1.064l2.057.183c.683.1 1.485.24 1.544 1.065.05.675-.667 1.14-1.097 1.554l-1.586 1.6c-1.174 1.243-2.278 2.55-3.3 3.915-.567.746-1.785-.062-1.215-.8l2.885-3.475 1.485-1.57.77-.76.107-.102-.437-.05-1.32-.096c-.873-.04-1.747-.028-2.62.038a23.52 23.52 0 0 0-5.182 1.005.73.73 0 0 1-.543-.118.74.74 0 0 1-.305-.465zm-4.716-3.492c-.063-1.575.467-3.117 1.484-4.32a11.23 11.23 0 0 1 4.014-2.97c1.245-.586 3.282-1.508 4.656-.762l.324.112a1.66 1.66 0 0 1 .603.342 1.5 1.5 0 0 1 .4.558c.086.213.146.443.147.677a1.65 1.65 0 0 1-.142.678 3.69 3.69 0 0 1-1.794 1.47 16.39 16.39 0 0 0-2.364 1.235c-1.286 1.097-2.516 2.258-3.685 3.48a3.81 3.81 0 0 1-1.872 1.153 1.65 1.65 0 0 1-.672-.087 1.63 1.63 0 0 1-.58-.35 1.65 1.65 0 0 1-.392-.553c-.1-.2-.137-.435-.136-.663z" fill="#2c2142"/><path d="M215.57 187.14l-2.363-5.4c-.053-.142-.134-.272-.237-.382a1.16 1.16 0 0 0-.366-.263 1.14 1.14 0 0 0-.438-.103 1.16 1.16 0 0 0-.444.073c-.142.053-.272.134-.382.237a1.16 1.16 0 0 0-.263.366 1.14 1.14 0 0 0-.103.438 1.16 1.16 0 0 0 .073.444l2.363 5.4c.107.286.324.518.602.645s.596.137.883.03.518-.324.645-.603.137-.596.03-.882z" class="F"/><path d="M210.362 155.675c-1.974 5.374-6.1 9.45-9.666 13.786-1.94 2.374-3.725 4.872-5.34 7.48l-2.204 5.92a77.68 77.68 0 0 1-3.014 7.364c-.573 1.176-1.215 2.316-1.925 3.415-3.154 4.817-7.73 8.43-12.015 12.312a54.27 54.27 0 0 0-5.332 5.455c-1.864 2.353-3.574 4.824-5.12 7.397l-3.727 5.922c-6.227-5.935-12.805-11.49-19.7-16.637a124.28 124.28 0 0 0 6.545-23.625c.958-5.545 1.638-11.4 4.906-15.99a30.74 30.74 0 0 1 5.406-5.455l2.548-2.114c1.91-1.572 3.844-3.107 5.805-4.603.336-.32.76-.533 1.215-.615.785-.064 1.417.615 1.91 1.237l1.047 1.327 5.645-5.88c.583-.765 1.41-1.31 2.342-1.548a4.32 4.32 0 0 1 3.014 1.254l1.277.99 15.8-2.688a1.83 1.83 0 0 1 .746-.071c.25.03.494.11.712.236a1.41 1.41 0 0 1 .435.769 4.03 4.03 0 0 1-.238 2.58c-.155.372-.353.724-.6 1.05-.797 1.01-1.79 1.847-2.916 2.465a24.43 24.43 0 0 1-3.941 1.89 13.74 13.74 0 0 0-1.057 2.523c-.415 1.037-.433 2.19-.048 3.24.557.852 1.998.09 2.604-.344a8.41 8.41 0 0 0 2.015-2.219c1.376-2.025 2.466-4.277 3.637-6.424.377-.675.746-1.39 1.156-2.072-.033-.001-.067-.007-.1-.016.37-.566.802-1.09 1.286-1.565a5.96 5.96 0 0 1 .966-.835c.058-.04.107-.08.157-.122.715-.537 1.555-.884 2.44-1.008a2.89 2.89 0 0 1 1.315.141c.422.148.803.39 1.115.71.388.473.623 1.053.675 1.663a4.32 4.32 0 0 1 .042.663c-.001.365-.032.73-.1 1.09.136.112.234.265.28.435s.035.352-.028.517z" class="G"/><path d="M202.213 154a7.12 7.12 0 0 1 2.317.712 10.9 10.9 0 0 1 3.768 4.104l.074.115c.167.2.283.44.337.695a1.61 1.61 0 0 1-.026.771 1.78 1.78 0 0 1-.497.496 1.8 1.8 0 0 1-.649.266l-1.1.405c-1.72.694-3.346 1.6-4.84 2.7l-.024.008.05.123a20.45 20.45 0 0 0 1.089 2.138 21.28 21.28 0 0 0 5.185 5.955 34.15 34.15 0 0 1-11.828 2.505l-8.035.77a28.05 28.05 0 0 0-3.17.663c-2.178.533-4.2 1.597-5.858 3.097-2.636 2.515-3.734 6.224-4.398 9.813-3.143-6.096-4.895-12.813-5.13-19.667a10.09 10.09 0 0 0 10.083 3.988 2.09 2.09 0 0 0 .912-.308c.276-.172.507-.406.677-.683a2.34 2.34 0 0 0-.013-1.134c-.097-.37-.284-.713-.544-.995a206.08 206.08 0 0 0-3.694-5.324l.37-.262c1.957-.877 3.956-1.687 5.97-2.43-.008.895.163 1.783.502 2.612a6.75 6.75 0 0 0 1.475 2.213c.634.632 1.387 1.132 2.217 1.47a6.72 6.72 0 0 0 2.612.496l.574-9.003c2.583-.56 5.058-1.538 7.324-2.9 1.126-.62 2.118-1.457 2.916-2.465a5.18 5.18 0 0 0 .59-1.049 14.57 14.57 0 0 1 .756.104z" fill="#fff"/><g class="F"><path d="M179.014 179.52c1.667-1.5 3.68-2.563 5.857-3.097a18.47 18.47 0 0 0-2.475 8.044c-.194 2.836.27 5.678 1.353 8.306a29.37 29.37 0 0 0-17.972 3.399c1.177-5.03.69-10.307-1.384-15.04a1.62 1.62 0 0 1-.298-1.144c.05-.406.25-.778.56-1.043 2.29-2.848 3.826-6.225 4.473-9.82a8.38 8.38 0 0 0 .352.54 46.38 46.38 0 0 0 5.13 19.667c.67-3.587 1.764-7.297 4.404-9.812z"/><path d="M181.3 171.465c-.324-.594-.685-1.17-1.08-1.72l-6.275-9.7a13.4 13.4 0 0 0-2.68-3.578 4.27 4.27 0 0 0-3.718-.695c-.5.135-.22.9.286.768.523-.14 1.07-.15 1.6-.036a3.41 3.41 0 0 1 1.44.697c.848.855 1.565 1.83 2.13 2.893l4.185 6.467 3.137 4.86c.372.6.56 1.136-.12 1.572-.962.448-2.052.536-3.074.25-1.135-.166-2.245-.47-3.306-.906a7.6 7.6 0 0 1-4.64-5.028c-.123-.5-.9-.222-.768.286a8.19 8.19 0 0 0 1.671 3.109c.777.903 1.74 1.625 2.826 2.116a13.9 13.9 0 0 0 3.72 1.17c1.164.313 2.393.3 3.545-.065a1.74 1.74 0 0 0 .683-.351 1.73 1.73 0 0 0 .466-.61 1.74 1.74 0 0 0 .157-.752 1.73 1.73 0 0 0-.182-.746zm19.952-21.553c-.487-.2-.84.54-.35.74 1.542.632.184 2.622-.44 3.406-.852 1.05-1.857 1.968-2.98 2.72a26.04 26.04 0 0 1-7.244 3.223 6.87 6.87 0 0 0-1.39-1.97l-3.037-3.118a43.51 43.51 0 0 0-3.375-3.375 3.75 3.75 0 0 0-1.746-.951c-.656-.154-1.343-.128-1.986.076-.102.038-.184.115-.23.214s-.05.2-.012.313a.41.41 0 0 0 .528.241 3.12 3.12 0 0 1 1.727.022 3.13 3.13 0 0 1 1.452.936c.846.758 1.613 1.62 2.405 2.43l2.667 2.737c.814.718 1.53 1.54 2.13 2.446.458 1.146.636 2.384.52 3.613l-.064 3.66c.044.533-.02 1.07-.2 1.576-.27.48-.905.376-1.35.27a5.54 5.54 0 0 1-2.345-1.259c-.76-.695-1.367-1.542-1.78-2.486a7.37 7.37 0 0 1-.615-2.995c0-.528-.8-.454-.8.072a8.2 8.2 0 0 0 2.372 5.745 6.53 6.53 0 0 0 2.588 1.6c.864.28 2.058.447 2.612-.466a3.62 3.62 0 0 0 .32-1.707l.08-2.094c.08-1.46.04-2.925-.12-4.378-.02-.135-.067-.247-.096-.374a24.9 24.9 0 0 0 8.347-3.981 12.54 12.54 0 0 0 3.048-3.352c.678-1.14.83-2.936-.635-3.537zm9.435 2.348c-.12-.512-.888-.223-.768.285 1.382 5.867-3.433 10.664-7.27 14.33-.382.364.248.887.626.526a31.67 31.67 0 0 0 5.931-6.859 11.44 11.44 0 0 0 1.482-8.283zm-16.382 24.158a30.8 30.8 0 0 0-2.025 5.522c-.5 1.765-1.098 3.5-1.8 5.2-2.08 4.977-5.095 9.5-8.885 13.347-1.36 1.375-2.835 2.604-4.3 3.87a55.63 55.63 0 0 0-7.83 8.9c-2.758 3.493-5.232 7.2-7.397 11.1-.245.468.497.8.742.35 1.932-3.504 4.14-6.85 6.6-10.004a60.04 60.04 0 0 1 7.788-9.18c1.43-1.276 2.927-2.472 4.306-3.803a41.37 41.37 0 0 0 3.59-3.933 42.85 42.85 0 0 0 5.588-9.065 44.26 44.26 0 0 0 2.078-5.566 36.84 36.84 0 0 1 2.274-6.396c.242-.46-.5-.808-.74-.34z"/></g><defs><linearGradient id="A" x1="285.474" y1="497.244" x2="238.76" y2="132.875" gradientUnits="userSpaceOnUse"><stop stop-color="#142863"/><stop offset="1" stop-color="#21337f"/></linearGradient></defs></svg>